G04 #@! TF.GenerationSoftware,KiCad,Pcbnew,(5.0.1-dev-70-gb7b125d83)*
G04 #@! TF.CreationDate,2019-03-02T22:20:39+01:00*
G04 #@! TF.ProjectId,piezothing,7069657A6F7468696E672E6B69636164,rev?*
G04 #@! TF.SameCoordinates,Original*
G04 #@! TF.FileFunction,Copper,L1,Top,Signal*
G04 #@! TF.FilePolarity,Positive*
%FSLAX46Y46*%
G04 Gerber Fmt 4.6, Leading zero omitted, Abs format (unit mm)*
G04 Created by KiCad (PCBNEW (5.0.1-dev-70-gb7b125d83)) date 03/02/19 22:20:39*
%MOMM*%
%LPD*%
G01*
G04 APERTURE LIST*
G04 #@! TA.AperFunction,EtchedComponent*
%ADD10C,0.010000*%
G04 #@! TD*
G04 #@! TA.AperFunction,ComponentPad*
%ADD11O,1.700000X1.700000*%
G04 #@! TD*
G04 #@! TA.AperFunction,ComponentPad*
%ADD12R,1.700000X1.700000*%
G04 #@! TD*
G04 #@! TA.AperFunction,ComponentPad*
%ADD13C,3.000000*%
G04 #@! TD*
G04 #@! TA.AperFunction,ViaPad*
%ADD14C,0.800000*%
G04 #@! TD*
G04 #@! TA.AperFunction,Conductor*
%ADD15C,0.250000*%
G04 #@! TD*
G04 APERTURE END LIST*
D10*
G04 #@! TO.C,G\002A\002A\002A*
G36*
X125612270Y-88118697D02*
X125529655Y-88037345D01*
X125493818Y-87950586D01*
X125528901Y-87872319D01*
X125608597Y-87790343D01*
X125694575Y-87741588D01*
X125713520Y-87738909D01*
X125784278Y-87768703D01*
X125836883Y-87811480D01*
X125895767Y-87896516D01*
X125909455Y-87946727D01*
X125872704Y-88037724D01*
X125789088Y-88120293D01*
X125701636Y-88154545D01*
X125612270Y-88118697D01*
X125612270Y-88118697D01*
G37*
X125612270Y-88118697D02*
X125529655Y-88037345D01*
X125493818Y-87950586D01*
X125528901Y-87872319D01*
X125608597Y-87790343D01*
X125694575Y-87741588D01*
X125713520Y-87738909D01*
X125784278Y-87768703D01*
X125836883Y-87811480D01*
X125895767Y-87896516D01*
X125909455Y-87946727D01*
X125872704Y-88037724D01*
X125789088Y-88120293D01*
X125701636Y-88154545D01*
X125612270Y-88118697D01*
G36*
X124994854Y-88111816D02*
X124919541Y-88015192D01*
X124911496Y-87989231D01*
X124914526Y-87859633D01*
X124980220Y-87772380D01*
X125083408Y-87741236D01*
X125198924Y-87779966D01*
X125236520Y-87811480D01*
X125302483Y-87915524D01*
X125279251Y-88016078D01*
X125220037Y-88082278D01*
X125104787Y-88137123D01*
X124994854Y-88111816D01*
X124994854Y-88111816D01*
G37*
X124994854Y-88111816D02*
X124919541Y-88015192D01*
X124911496Y-87989231D01*
X124914526Y-87859633D01*
X124980220Y-87772380D01*
X125083408Y-87741236D01*
X125198924Y-87779966D01*
X125236520Y-87811480D01*
X125302483Y-87915524D01*
X125279251Y-88016078D01*
X125220037Y-88082278D01*
X125104787Y-88137123D01*
X124994854Y-88111816D01*
G04 #@! TD*
D11*
G04 #@! TO.P,J1,2*
G04 #@! TO.N,/A2*
X118210000Y-72750000D03*
D12*
G04 #@! TO.P,J1,1*
G04 #@! TO.N,/K1*
X120750000Y-72750000D03*
G04 #@! TD*
D13*
G04 #@! TO.P,REF\002A\002A,1*
G04 #@! TO.N,/A1*
X116000000Y-80000000D03*
G04 #@! TD*
G04 #@! TO.P,REF\002A\002A,1*
G04 #@! TO.N,/A2*
X144000000Y-80000000D03*
G04 #@! TD*
D12*
G04 #@! TO.P,J1,1*
G04 #@! TO.N,/K1*
X139250000Y-72750000D03*
D11*
G04 #@! TO.P,J1,2*
G04 #@! TO.N,/A2*
X136710000Y-72750000D03*
G04 #@! TD*
D14*
G04 #@! TO.N,/A2*
X147750000Y-71500000D03*
G04 #@! TO.N,/A1*
X152000000Y-72000000D03*
X116000000Y-88200000D03*
X127400000Y-89000000D03*
G04 #@! TD*
D15*
G04 #@! TO.N,/A2*
X144000000Y-77878680D02*
X144000000Y-80000000D01*
X144000000Y-72500000D02*
X144000000Y-77878680D01*
X137257919Y-71000000D02*
X142500000Y-71000000D01*
X136710000Y-71547919D02*
X137257919Y-71000000D01*
X136710000Y-72750000D02*
X136710000Y-71547919D01*
X142500000Y-71000000D02*
X143250000Y-71750000D01*
X143250000Y-71750000D02*
X144000000Y-72500000D01*
X147250000Y-71000000D02*
X147750000Y-71500000D01*
X142500000Y-71000000D02*
X147250000Y-71000000D01*
X119960000Y-71000000D02*
X118210000Y-72750000D01*
X137257919Y-71000000D02*
X119960000Y-71000000D01*
G04 #@! TO.N,/A1*
X151500000Y-72500000D02*
X152000000Y-72000000D01*
X151500000Y-85000000D02*
X151500000Y-72500000D01*
X147500000Y-89000000D02*
X151500000Y-85000000D01*
X116000000Y-84400000D02*
X116000000Y-88200000D01*
X116000000Y-80000000D02*
X116000000Y-84400000D01*
X116000000Y-84400000D02*
X116000000Y-85500000D01*
X127400000Y-89000000D02*
X147500000Y-89000000D01*
G04 #@! TD*
M02*
