G04 #@! TF.GenerationSoftware,KiCad,Pcbnew,(5.0.1-dev-70-gb7b125d83)*
G04 #@! TF.CreationDate,2019-03-02T22:20:39+01:00*
G04 #@! TF.ProjectId,piezothing,7069657A6F7468696E672E6B69636164,rev?*
G04 #@! TF.SameCoordinates,Original*
G04 #@! TF.FileFunction,Soldermask,Bot*
G04 #@! TF.FilePolarity,Negative*
%FSLAX46Y46*%
G04 Gerber Fmt 4.6, Leading zero omitted, Abs format (unit mm)*
G04 Created by KiCad (PCBNEW (5.0.1-dev-70-gb7b125d83)) date 03/02/19 22:20:39*
%MOMM*%
%LPD*%
G01*
G04 APERTURE LIST*
%ADD10C,0.010000*%
%ADD11C,0.500000*%
%ADD12C,0.100000*%
%ADD13O,2.100000X2.100000*%
%ADD14R,2.100000X2.100000*%
%ADD15C,3.600000*%
%ADD16C,3.400000*%
%ADD17C,1.400000*%
G04 APERTURE END LIST*
D10*
G04 #@! TO.C,G\002A\002A\002A*
G36*
X138543011Y-89508504D02*
X138603914Y-89494409D01*
X139073743Y-89348155D01*
X139469765Y-89153000D01*
X139789849Y-88910412D01*
X140031868Y-88621856D01*
X140132000Y-88441812D01*
X140184476Y-88322516D01*
X140219611Y-88214901D01*
X140240798Y-88095759D01*
X140251430Y-87941883D01*
X140254901Y-87730065D01*
X140255018Y-87600364D01*
X140245546Y-87250202D01*
X140211889Y-86964589D01*
X140144574Y-86724681D01*
X140034124Y-86511638D01*
X139871066Y-86306618D01*
X139645924Y-86090780D01*
X139387971Y-85876173D01*
X139143218Y-85641369D01*
X138985888Y-85396130D01*
X138911082Y-85132743D01*
X138909986Y-85123845D01*
X138900359Y-84970751D01*
X138920189Y-84879091D01*
X138957480Y-84833809D01*
X139024725Y-84756485D01*
X139004479Y-84708756D01*
X138896751Y-84690638D01*
X138881909Y-84690458D01*
X138755602Y-84670446D01*
X138592100Y-84619529D01*
X138484778Y-84575003D01*
X138351112Y-84513653D01*
X138256616Y-84471931D01*
X138225637Y-84460000D01*
X138224266Y-84499050D01*
X138236973Y-84582606D01*
X138260411Y-84705213D01*
X137999660Y-84674567D01*
X137834696Y-84665735D01*
X137751513Y-84684502D01*
X137745554Y-84725644D01*
X137812266Y-84783939D01*
X137947093Y-84854162D01*
X138145480Y-84931089D01*
X138254206Y-84966480D01*
X138411798Y-85023869D01*
X138531726Y-85083771D01*
X138588291Y-85133322D01*
X138588475Y-85133787D01*
X138604892Y-85221068D01*
X138614914Y-85360135D01*
X138616364Y-85437148D01*
X138606445Y-85593351D01*
X138565838Y-85701790D01*
X138478263Y-85805932D01*
X138478260Y-85805935D01*
X138333608Y-85908151D01*
X138199010Y-85924599D01*
X138081656Y-85861828D01*
X137988734Y-85726389D01*
X137927434Y-85524833D01*
X137905102Y-85283668D01*
X137901441Y-85014182D01*
X137746340Y-85014182D01*
X137605226Y-84986383D01*
X137476828Y-84891097D01*
X137457256Y-84870752D01*
X137323273Y-84727323D01*
X137323273Y-84873864D01*
X137315574Y-84972650D01*
X137279400Y-85001216D01*
X137219364Y-84988895D01*
X137107568Y-84933834D01*
X137011545Y-84862278D01*
X136939378Y-84802145D01*
X136911597Y-84804981D01*
X136907636Y-84847531D01*
X136950580Y-85022923D01*
X137076097Y-85163989D01*
X137279219Y-85265851D01*
X137357148Y-85288701D01*
X137453262Y-85315876D01*
X137517748Y-85351082D01*
X137560570Y-85412735D01*
X137591692Y-85519248D01*
X137621079Y-85689037D01*
X137639208Y-85809967D01*
X137657957Y-85962838D01*
X137654758Y-86047857D01*
X137626911Y-86087509D01*
X137604784Y-86096794D01*
X137538141Y-86111498D01*
X137395742Y-86139461D01*
X137192776Y-86177818D01*
X136944432Y-86223704D01*
X136665900Y-86274253D01*
X136628229Y-86281024D01*
X136108651Y-86380291D01*
X135673179Y-86477530D01*
X135313699Y-86575860D01*
X135022097Y-86678401D01*
X134790259Y-86788269D01*
X134610070Y-86908583D01*
X134473418Y-87042463D01*
X134406118Y-87135035D01*
X134331167Y-87268346D01*
X134283826Y-87381635D01*
X134275273Y-87424678D01*
X134247463Y-87487787D01*
X134152013Y-87507910D01*
X134141511Y-87508000D01*
X133992904Y-87550515D01*
X133861997Y-87663396D01*
X133766002Y-87824647D01*
X133737479Y-87946625D01*
X133787225Y-87946625D01*
X133848216Y-87784453D01*
X133954348Y-87658565D01*
X134089359Y-87580880D01*
X134236986Y-87563319D01*
X134380968Y-87617802D01*
X134432186Y-87660715D01*
X134516546Y-87755956D01*
X134568632Y-87833897D01*
X134598683Y-87877453D01*
X134628459Y-87833897D01*
X134725426Y-87697580D01*
X134862760Y-87595747D01*
X135005275Y-87554226D01*
X135009507Y-87554182D01*
X135176215Y-87593135D01*
X135302713Y-87696140D01*
X135385319Y-87842413D01*
X135420350Y-88011171D01*
X135404120Y-88181629D01*
X135332948Y-88333006D01*
X135203148Y-88444517D01*
X135170071Y-88460105D01*
X134994843Y-88495897D01*
X134837179Y-88445046D01*
X134690707Y-88308085D01*
X134613154Y-88230336D01*
X134568901Y-88227898D01*
X134565545Y-88234746D01*
X134470198Y-88380173D01*
X134321987Y-88482133D01*
X134249042Y-88504862D01*
X134098508Y-88491024D01*
X133954124Y-88406914D01*
X133840899Y-88272679D01*
X133787637Y-88133160D01*
X133787225Y-87946625D01*
X133737479Y-87946625D01*
X133722128Y-88012271D01*
X133721091Y-88045316D01*
X133732918Y-88193182D01*
X133781759Y-88303313D01*
X133878109Y-88413164D01*
X134009185Y-88521534D01*
X134134441Y-88566113D01*
X134198656Y-88570182D01*
X134316061Y-88557267D01*
X134388756Y-88525633D01*
X134393068Y-88520213D01*
X134444860Y-88512477D01*
X134537306Y-88578486D01*
X134545884Y-88586548D01*
X134655600Y-88676184D01*
X134777081Y-88737649D01*
X134930088Y-88775750D01*
X135134383Y-88795291D01*
X135409728Y-88801076D01*
X135428249Y-88801091D01*
X135928666Y-88801091D01*
X136198788Y-89003111D01*
X136636564Y-89282919D01*
X137083490Y-89472058D01*
X137545951Y-89571832D01*
X138030329Y-89583547D01*
X138543011Y-89508504D01*
X138543011Y-89508504D01*
G37*
X138543011Y-89508504D02*
X138603914Y-89494409D01*
X139073743Y-89348155D01*
X139469765Y-89153000D01*
X139789849Y-88910412D01*
X140031868Y-88621856D01*
X140132000Y-88441812D01*
X140184476Y-88322516D01*
X140219611Y-88214901D01*
X140240798Y-88095759D01*
X140251430Y-87941883D01*
X140254901Y-87730065D01*
X140255018Y-87600364D01*
X140245546Y-87250202D01*
X140211889Y-86964589D01*
X140144574Y-86724681D01*
X140034124Y-86511638D01*
X139871066Y-86306618D01*
X139645924Y-86090780D01*
X139387971Y-85876173D01*
X139143218Y-85641369D01*
X138985888Y-85396130D01*
X138911082Y-85132743D01*
X138909986Y-85123845D01*
X138900359Y-84970751D01*
X138920189Y-84879091D01*
X138957480Y-84833809D01*
X139024725Y-84756485D01*
X139004479Y-84708756D01*
X138896751Y-84690638D01*
X138881909Y-84690458D01*
X138755602Y-84670446D01*
X138592100Y-84619529D01*
X138484778Y-84575003D01*
X138351112Y-84513653D01*
X138256616Y-84471931D01*
X138225637Y-84460000D01*
X138224266Y-84499050D01*
X138236973Y-84582606D01*
X138260411Y-84705213D01*
X137999660Y-84674567D01*
X137834696Y-84665735D01*
X137751513Y-84684502D01*
X137745554Y-84725644D01*
X137812266Y-84783939D01*
X137947093Y-84854162D01*
X138145480Y-84931089D01*
X138254206Y-84966480D01*
X138411798Y-85023869D01*
X138531726Y-85083771D01*
X138588291Y-85133322D01*
X138588475Y-85133787D01*
X138604892Y-85221068D01*
X138614914Y-85360135D01*
X138616364Y-85437148D01*
X138606445Y-85593351D01*
X138565838Y-85701790D01*
X138478263Y-85805932D01*
X138478260Y-85805935D01*
X138333608Y-85908151D01*
X138199010Y-85924599D01*
X138081656Y-85861828D01*
X137988734Y-85726389D01*
X137927434Y-85524833D01*
X137905102Y-85283668D01*
X137901441Y-85014182D01*
X137746340Y-85014182D01*
X137605226Y-84986383D01*
X137476828Y-84891097D01*
X137457256Y-84870752D01*
X137323273Y-84727323D01*
X137323273Y-84873864D01*
X137315574Y-84972650D01*
X137279400Y-85001216D01*
X137219364Y-84988895D01*
X137107568Y-84933834D01*
X137011545Y-84862278D01*
X136939378Y-84802145D01*
X136911597Y-84804981D01*
X136907636Y-84847531D01*
X136950580Y-85022923D01*
X137076097Y-85163989D01*
X137279219Y-85265851D01*
X137357148Y-85288701D01*
X137453262Y-85315876D01*
X137517748Y-85351082D01*
X137560570Y-85412735D01*
X137591692Y-85519248D01*
X137621079Y-85689037D01*
X137639208Y-85809967D01*
X137657957Y-85962838D01*
X137654758Y-86047857D01*
X137626911Y-86087509D01*
X137604784Y-86096794D01*
X137538141Y-86111498D01*
X137395742Y-86139461D01*
X137192776Y-86177818D01*
X136944432Y-86223704D01*
X136665900Y-86274253D01*
X136628229Y-86281024D01*
X136108651Y-86380291D01*
X135673179Y-86477530D01*
X135313699Y-86575860D01*
X135022097Y-86678401D01*
X134790259Y-86788269D01*
X134610070Y-86908583D01*
X134473418Y-87042463D01*
X134406118Y-87135035D01*
X134331167Y-87268346D01*
X134283826Y-87381635D01*
X134275273Y-87424678D01*
X134247463Y-87487787D01*
X134152013Y-87507910D01*
X134141511Y-87508000D01*
X133992904Y-87550515D01*
X133861997Y-87663396D01*
X133766002Y-87824647D01*
X133737479Y-87946625D01*
X133787225Y-87946625D01*
X133848216Y-87784453D01*
X133954348Y-87658565D01*
X134089359Y-87580880D01*
X134236986Y-87563319D01*
X134380968Y-87617802D01*
X134432186Y-87660715D01*
X134516546Y-87755956D01*
X134568632Y-87833897D01*
X134598683Y-87877453D01*
X134628459Y-87833897D01*
X134725426Y-87697580D01*
X134862760Y-87595747D01*
X135005275Y-87554226D01*
X135009507Y-87554182D01*
X135176215Y-87593135D01*
X135302713Y-87696140D01*
X135385319Y-87842413D01*
X135420350Y-88011171D01*
X135404120Y-88181629D01*
X135332948Y-88333006D01*
X135203148Y-88444517D01*
X135170071Y-88460105D01*
X134994843Y-88495897D01*
X134837179Y-88445046D01*
X134690707Y-88308085D01*
X134613154Y-88230336D01*
X134568901Y-88227898D01*
X134565545Y-88234746D01*
X134470198Y-88380173D01*
X134321987Y-88482133D01*
X134249042Y-88504862D01*
X134098508Y-88491024D01*
X133954124Y-88406914D01*
X133840899Y-88272679D01*
X133787637Y-88133160D01*
X133787225Y-87946625D01*
X133737479Y-87946625D01*
X133722128Y-88012271D01*
X133721091Y-88045316D01*
X133732918Y-88193182D01*
X133781759Y-88303313D01*
X133878109Y-88413164D01*
X134009185Y-88521534D01*
X134134441Y-88566113D01*
X134198656Y-88570182D01*
X134316061Y-88557267D01*
X134388756Y-88525633D01*
X134393068Y-88520213D01*
X134444860Y-88512477D01*
X134537306Y-88578486D01*
X134545884Y-88586548D01*
X134655600Y-88676184D01*
X134777081Y-88737649D01*
X134930088Y-88775750D01*
X135134383Y-88795291D01*
X135409728Y-88801076D01*
X135428249Y-88801091D01*
X135928666Y-88801091D01*
X136198788Y-89003111D01*
X136636564Y-89282919D01*
X137083490Y-89472058D01*
X137545951Y-89571832D01*
X138030329Y-89583547D01*
X138543011Y-89508504D01*
G36*
X135005146Y-88111816D02*
X135080459Y-88015192D01*
X135088504Y-87989231D01*
X135085474Y-87859633D01*
X135019780Y-87772380D01*
X134916592Y-87741236D01*
X134801076Y-87779966D01*
X134763480Y-87811480D01*
X134697517Y-87915524D01*
X134720749Y-88016078D01*
X134779963Y-88082278D01*
X134895213Y-88137123D01*
X135005146Y-88111816D01*
X135005146Y-88111816D01*
G37*
X135005146Y-88111816D02*
X135080459Y-88015192D01*
X135088504Y-87989231D01*
X135085474Y-87859633D01*
X135019780Y-87772380D01*
X134916592Y-87741236D01*
X134801076Y-87779966D01*
X134763480Y-87811480D01*
X134697517Y-87915524D01*
X134720749Y-88016078D01*
X134779963Y-88082278D01*
X134895213Y-88137123D01*
X135005146Y-88111816D01*
G36*
X134387730Y-88118697D02*
X134470345Y-88037345D01*
X134506182Y-87950586D01*
X134471099Y-87872319D01*
X134391403Y-87790343D01*
X134305425Y-87741588D01*
X134286480Y-87738909D01*
X134215722Y-87768703D01*
X134163117Y-87811480D01*
X134104233Y-87896516D01*
X134090545Y-87946727D01*
X134127296Y-88037724D01*
X134210912Y-88120293D01*
X134298364Y-88154545D01*
X134387730Y-88118697D01*
X134387730Y-88118697D01*
G37*
X134387730Y-88118697D02*
X134470345Y-88037345D01*
X134506182Y-87950586D01*
X134471099Y-87872319D01*
X134391403Y-87790343D01*
X134305425Y-87741588D01*
X134286480Y-87738909D01*
X134215722Y-87768703D01*
X134163117Y-87811480D01*
X134104233Y-87896516D01*
X134090545Y-87946727D01*
X134127296Y-88037724D01*
X134210912Y-88120293D01*
X134298364Y-88154545D01*
X134387730Y-88118697D01*
G04 #@! TD*
D11*
G04 #@! TO.C,REF\002A\002A*
X144000000Y-80000000D03*
D12*
G36*
X143495742Y-86680765D02*
X143476259Y-86679266D01*
X142846220Y-86599673D01*
X142826978Y-86596280D01*
X142207712Y-86455587D01*
X142188891Y-86450332D01*
X141586310Y-86249880D01*
X141568093Y-86242814D01*
X140987949Y-85984517D01*
X140970508Y-85975707D01*
X140418338Y-85662031D01*
X140401840Y-85651561D01*
X139882914Y-85285499D01*
X139867516Y-85273469D01*
X139386789Y-84858516D01*
X139372639Y-84845041D01*
X138934698Y-84385158D01*
X138921930Y-84370366D01*
X138530956Y-83869942D01*
X138519692Y-83853975D01*
X138179417Y-83317787D01*
X138169766Y-83300797D01*
X137883438Y-82733963D01*
X137875490Y-82716113D01*
X137645841Y-82124044D01*
X137639673Y-82105503D01*
X137468896Y-81493849D01*
X137464567Y-81474795D01*
X137354292Y-80849396D01*
X137351843Y-80830010D01*
X137303123Y-80196835D01*
X137302553Y-80184283D01*
X137300019Y-80002792D01*
X137300239Y-79990230D01*
X137331261Y-79355941D01*
X137333168Y-79336495D01*
X137425937Y-78708261D01*
X137429732Y-78689093D01*
X137583364Y-78072909D01*
X137589012Y-78054202D01*
X137802040Y-77455952D01*
X137809486Y-77437887D01*
X138079876Y-76863279D01*
X138089049Y-76846027D01*
X138414220Y-76300547D01*
X138425033Y-76284271D01*
X138801882Y-75773126D01*
X138814232Y-75757984D01*
X139239161Y-75286052D01*
X139252929Y-75272187D01*
X139721883Y-74843973D01*
X139736939Y-74831518D01*
X140245441Y-74451110D01*
X140261641Y-74440183D01*
X140804838Y-74111211D01*
X140822026Y-74101917D01*
X141394732Y-73827523D01*
X141412745Y-73819951D01*
X142009494Y-73602752D01*
X142028160Y-73596974D01*
X142643256Y-73439044D01*
X142662397Y-73435115D01*
X143289968Y-73337962D01*
X143309400Y-73335920D01*
X143943457Y-73300470D01*
X143962997Y-73300333D01*
X144597487Y-73326926D01*
X144616947Y-73328697D01*
X145245814Y-73417079D01*
X145265007Y-73420741D01*
X145882247Y-73570067D01*
X145900992Y-73575584D01*
X146500716Y-73784430D01*
X146518834Y-73791750D01*
X147095315Y-74058122D01*
X147112631Y-74067174D01*
X147660368Y-74388529D01*
X147676718Y-74399229D01*
X148190482Y-74772500D01*
X148205710Y-74784743D01*
X148680597Y-75206368D01*
X148694558Y-75220040D01*
X149126035Y-75685993D01*
X149138595Y-75700961D01*
X149522544Y-76206794D01*
X149533584Y-76222917D01*
X149866339Y-76763804D01*
X149875752Y-76780927D01*
X150154139Y-77351704D01*
X150161836Y-77369664D01*
X150383195Y-77964882D01*
X150389104Y-77983507D01*
X150551324Y-78597485D01*
X150555386Y-78616598D01*
X150656918Y-79243476D01*
X150659096Y-79262894D01*
X150698971Y-79896688D01*
X150699244Y-79916225D01*
X150693980Y-80067017D01*
X148799294Y-80067017D01*
X148782927Y-79598367D01*
X148720908Y-79133554D01*
X148613826Y-78677006D01*
X148462705Y-78233092D01*
X148268984Y-77806036D01*
X148034520Y-77399932D01*
X147761541Y-77018639D01*
X147452662Y-76665810D01*
X147110817Y-76344794D01*
X146739292Y-76058683D01*
X146341603Y-75810179D01*
X145921580Y-75601678D01*
X145483208Y-75435156D01*
X145030679Y-75312207D01*
X144568314Y-75234003D01*
X144100517Y-75201292D01*
X143631768Y-75214385D01*
X143166531Y-75273158D01*
X142709246Y-75377051D01*
X142264287Y-75525069D01*
X141835896Y-75715801D01*
X141428164Y-75947425D01*
X141044969Y-76217739D01*
X140689990Y-76524149D01*
X140366604Y-76863738D01*
X140077903Y-77233258D01*
X139826629Y-77629202D01*
X139615203Y-78047756D01*
X139445620Y-78484967D01*
X139319518Y-78936611D01*
X139238087Y-79398431D01*
X139201842Y-79869468D01*
X139200069Y-79996519D01*
X139223146Y-80468378D01*
X139291648Y-80932273D01*
X139405095Y-81387280D01*
X139562403Y-81829053D01*
X139762060Y-82253347D01*
X140002177Y-82656146D01*
X140280455Y-83033593D01*
X140594232Y-83382078D01*
X140940515Y-83698277D01*
X141316008Y-83979183D01*
X141717121Y-84222105D01*
X142140009Y-84424719D01*
X142580673Y-84585108D01*
X143034874Y-84701727D01*
X143498293Y-84773467D01*
X143550000Y-84776358D01*
X143550000Y-80000000D01*
X143550301Y-79996944D01*
X143550301Y-79987733D01*
X143551264Y-79968128D01*
X143553669Y-79943712D01*
X143556549Y-79924301D01*
X143561335Y-79900239D01*
X143566105Y-79881196D01*
X143573227Y-79857719D01*
X143579838Y-79839241D01*
X143589227Y-79816574D01*
X143597618Y-79798833D01*
X143609183Y-79777196D01*
X143619273Y-79760361D01*
X143632903Y-79739962D01*
X143644595Y-79724197D01*
X143660159Y-79705232D01*
X143673341Y-79690689D01*
X143690689Y-79673341D01*
X143705232Y-79660159D01*
X143724197Y-79644595D01*
X143739962Y-79632903D01*
X143760361Y-79619273D01*
X143777196Y-79609183D01*
X143798833Y-79597618D01*
X143816574Y-79589227D01*
X143839241Y-79579838D01*
X143857719Y-79573227D01*
X143881196Y-79566105D01*
X143900239Y-79561335D01*
X143924301Y-79556549D01*
X143943712Y-79553669D01*
X143968128Y-79551264D01*
X143987733Y-79550301D01*
X144012267Y-79550301D01*
X144031872Y-79551264D01*
X144056288Y-79553669D01*
X144075699Y-79556549D01*
X144099761Y-79561335D01*
X144118804Y-79566105D01*
X144142281Y-79573227D01*
X144160759Y-79579838D01*
X144183426Y-79589227D01*
X144201167Y-79597618D01*
X144222804Y-79609183D01*
X144239639Y-79619273D01*
X144260038Y-79632903D01*
X144275803Y-79644595D01*
X144294768Y-79660159D01*
X144309311Y-79673341D01*
X144326659Y-79690689D01*
X144339841Y-79705232D01*
X144355405Y-79724197D01*
X144367097Y-79739962D01*
X144380727Y-79760361D01*
X144390817Y-79777196D01*
X144402382Y-79798833D01*
X144410773Y-79816574D01*
X144420162Y-79839241D01*
X144426773Y-79857719D01*
X144433895Y-79881196D01*
X144438665Y-79900239D01*
X144443451Y-79924301D01*
X144446331Y-79943712D01*
X144448736Y-79968128D01*
X144449699Y-79987733D01*
X144449699Y-79996944D01*
X144450000Y-80000000D01*
X144450000Y-84777901D01*
X144899393Y-84714742D01*
X145355172Y-84604478D01*
X145798016Y-84450263D01*
X146223709Y-84253565D01*
X146628179Y-84016265D01*
X147007545Y-83740639D01*
X147358219Y-83429296D01*
X147676828Y-83085229D01*
X147960350Y-82711702D01*
X148206058Y-82312310D01*
X148411630Y-81890826D01*
X148575087Y-81451301D01*
X148694876Y-80997920D01*
X148769849Y-80535024D01*
X148799294Y-80067017D01*
X150693980Y-80067017D01*
X150693638Y-80076790D01*
X150693638Y-80076791D01*
X150677082Y-80550886D01*
X150675447Y-80570357D01*
X150591458Y-81199825D01*
X150587931Y-81219044D01*
X150442917Y-81837313D01*
X150437531Y-81856096D01*
X150232877Y-82457263D01*
X150225684Y-82475431D01*
X149963343Y-83053758D01*
X149954411Y-83071137D01*
X149636888Y-83621103D01*
X149626303Y-83637528D01*
X149256627Y-84153886D01*
X149244490Y-84169199D01*
X148826192Y-84647017D01*
X148812618Y-84661073D01*
X148349688Y-85095793D01*
X148334808Y-85108457D01*
X147831667Y-85495928D01*
X147815622Y-85507080D01*
X147277072Y-85843604D01*
X147260015Y-85853136D01*
X146691196Y-86135500D01*
X146673290Y-86143323D01*
X146079631Y-86368832D01*
X146061048Y-86374870D01*
X145448218Y-86541373D01*
X145429134Y-86545569D01*
X144802980Y-86651475D01*
X144783577Y-86653789D01*
X144150077Y-86698087D01*
X144130542Y-86698496D01*
X143495742Y-86680765D01*
X143495742Y-86680765D01*
G37*
G04 #@! TD*
D13*
G04 #@! TO.C,J1*
X118210000Y-72750000D03*
D14*
X120750000Y-72750000D03*
G04 #@! TD*
D15*
G04 #@! TO.C,REF\002A\002A*
X105000000Y-80000000D03*
G04 #@! TD*
G04 #@! TO.C,REF\002A\002A*
X155000000Y-80000000D03*
G04 #@! TD*
D16*
G04 #@! TO.C,REF\002A\002A*
X116000000Y-80000000D03*
G04 #@! TD*
G04 #@! TO.C,REF\002A\002A*
X144000000Y-80000000D03*
G04 #@! TD*
D11*
G04 #@! TO.C,REF\002A\002A*
X116000000Y-80000000D03*
D12*
G36*
X116504258Y-73319235D02*
X116523741Y-73320734D01*
X117153780Y-73400327D01*
X117173022Y-73403720D01*
X117792288Y-73544413D01*
X117811109Y-73549668D01*
X118413690Y-73750120D01*
X118431907Y-73757186D01*
X119012051Y-74015483D01*
X119029492Y-74024293D01*
X119581662Y-74337969D01*
X119598160Y-74348439D01*
X120117086Y-74714501D01*
X120132484Y-74726531D01*
X120613211Y-75141484D01*
X120627361Y-75154959D01*
X121065302Y-75614842D01*
X121078070Y-75629634D01*
X121469044Y-76130058D01*
X121480308Y-76146025D01*
X121820583Y-76682213D01*
X121830234Y-76699203D01*
X122116562Y-77266037D01*
X122124510Y-77283887D01*
X122354159Y-77875956D01*
X122360327Y-77894497D01*
X122531104Y-78506151D01*
X122535433Y-78525205D01*
X122645708Y-79150604D01*
X122648157Y-79169990D01*
X122696877Y-79803165D01*
X122697447Y-79815717D01*
X122699981Y-79997208D01*
X122699761Y-80009770D01*
X122668739Y-80644059D01*
X122666832Y-80663505D01*
X122574063Y-81291739D01*
X122570268Y-81310907D01*
X122416636Y-81927091D01*
X122410988Y-81945798D01*
X122197960Y-82544048D01*
X122190514Y-82562113D01*
X121920124Y-83136721D01*
X121910951Y-83153973D01*
X121585780Y-83699453D01*
X121574967Y-83715729D01*
X121198118Y-84226874D01*
X121185768Y-84242016D01*
X120760839Y-84713948D01*
X120747071Y-84727813D01*
X120278117Y-85156027D01*
X120263061Y-85168482D01*
X119754559Y-85548890D01*
X119738359Y-85559817D01*
X119195162Y-85888789D01*
X119177974Y-85898083D01*
X118605268Y-86172477D01*
X118587255Y-86180049D01*
X117990506Y-86397248D01*
X117971840Y-86403026D01*
X117356744Y-86560956D01*
X117337603Y-86564885D01*
X116710032Y-86662038D01*
X116690600Y-86664080D01*
X116056543Y-86699530D01*
X116037003Y-86699667D01*
X115402513Y-86673074D01*
X115383053Y-86671303D01*
X114754186Y-86582921D01*
X114734993Y-86579259D01*
X114117753Y-86429933D01*
X114099008Y-86424416D01*
X113499284Y-86215570D01*
X113481166Y-86208250D01*
X112904685Y-85941878D01*
X112887369Y-85932826D01*
X112339632Y-85611471D01*
X112323282Y-85600771D01*
X111809518Y-85227500D01*
X111794290Y-85215257D01*
X111319403Y-84793632D01*
X111305442Y-84779960D01*
X110873965Y-84314007D01*
X110861405Y-84299039D01*
X110477456Y-83793206D01*
X110466416Y-83777083D01*
X110133661Y-83236196D01*
X110124248Y-83219073D01*
X109845861Y-82648296D01*
X109838164Y-82630336D01*
X109616805Y-82035118D01*
X109610896Y-82016493D01*
X109448676Y-81402515D01*
X109444614Y-81383402D01*
X109343082Y-80756524D01*
X109340904Y-80737106D01*
X109301029Y-80103312D01*
X109300756Y-80083775D01*
X109306020Y-79932983D01*
X111200706Y-79932983D01*
X111217073Y-80401633D01*
X111279092Y-80866446D01*
X111386174Y-81322994D01*
X111537295Y-81766908D01*
X111731016Y-82193964D01*
X111965480Y-82600068D01*
X112238459Y-82981361D01*
X112547338Y-83334190D01*
X112889183Y-83655206D01*
X113260708Y-83941317D01*
X113658397Y-84189821D01*
X114078420Y-84398322D01*
X114516792Y-84564844D01*
X114969321Y-84687793D01*
X115431686Y-84765997D01*
X115899483Y-84798708D01*
X116368232Y-84785615D01*
X116833469Y-84726842D01*
X117290754Y-84622949D01*
X117735713Y-84474931D01*
X118164104Y-84284199D01*
X118571836Y-84052575D01*
X118955031Y-83782261D01*
X119310010Y-83475851D01*
X119633396Y-83136262D01*
X119922097Y-82766742D01*
X120173371Y-82370798D01*
X120384797Y-81952244D01*
X120554380Y-81515033D01*
X120680482Y-81063389D01*
X120761913Y-80601569D01*
X120798158Y-80130532D01*
X120799931Y-80003481D01*
X120776854Y-79531622D01*
X120708352Y-79067727D01*
X120594905Y-78612720D01*
X120437597Y-78170947D01*
X120237940Y-77746653D01*
X119997823Y-77343854D01*
X119719545Y-76966407D01*
X119405768Y-76617922D01*
X119059485Y-76301723D01*
X118683992Y-76020817D01*
X118282879Y-75777895D01*
X117859991Y-75575281D01*
X117419327Y-75414892D01*
X116965126Y-75298273D01*
X116501707Y-75226533D01*
X116450000Y-75223642D01*
X116450000Y-80000000D01*
X116449699Y-80003056D01*
X116449699Y-80012267D01*
X116448736Y-80031872D01*
X116446331Y-80056288D01*
X116443451Y-80075699D01*
X116438665Y-80099761D01*
X116433895Y-80118804D01*
X116426773Y-80142281D01*
X116420162Y-80160759D01*
X116410773Y-80183426D01*
X116402382Y-80201167D01*
X116390817Y-80222804D01*
X116380727Y-80239639D01*
X116367097Y-80260038D01*
X116355405Y-80275803D01*
X116339841Y-80294768D01*
X116326659Y-80309311D01*
X116309311Y-80326659D01*
X116294768Y-80339841D01*
X116275803Y-80355405D01*
X116260038Y-80367097D01*
X116239639Y-80380727D01*
X116222804Y-80390817D01*
X116201167Y-80402382D01*
X116183426Y-80410773D01*
X116160759Y-80420162D01*
X116142281Y-80426773D01*
X116118804Y-80433895D01*
X116099761Y-80438665D01*
X116075699Y-80443451D01*
X116056288Y-80446331D01*
X116031872Y-80448736D01*
X116012267Y-80449699D01*
X115987733Y-80449699D01*
X115968128Y-80448736D01*
X115943712Y-80446331D01*
X115924301Y-80443451D01*
X115900239Y-80438665D01*
X115881196Y-80433895D01*
X115857719Y-80426773D01*
X115839241Y-80420162D01*
X115816574Y-80410773D01*
X115798833Y-80402382D01*
X115777196Y-80390817D01*
X115760361Y-80380727D01*
X115739962Y-80367097D01*
X115724197Y-80355405D01*
X115705232Y-80339841D01*
X115690689Y-80326659D01*
X115673341Y-80309311D01*
X115660159Y-80294768D01*
X115644595Y-80275803D01*
X115632903Y-80260038D01*
X115619273Y-80239639D01*
X115609183Y-80222804D01*
X115597618Y-80201167D01*
X115589227Y-80183426D01*
X115579838Y-80160759D01*
X115573227Y-80142281D01*
X115566105Y-80118804D01*
X115561335Y-80099761D01*
X115556549Y-80075699D01*
X115553669Y-80056288D01*
X115551264Y-80031872D01*
X115550301Y-80012267D01*
X115550301Y-80003056D01*
X115550000Y-80000000D01*
X115550000Y-75222099D01*
X115100607Y-75285258D01*
X114644828Y-75395522D01*
X114201984Y-75549737D01*
X113776291Y-75746435D01*
X113371821Y-75983735D01*
X112992455Y-76259361D01*
X112641781Y-76570704D01*
X112323172Y-76914771D01*
X112039650Y-77288298D01*
X111793942Y-77687690D01*
X111588370Y-78109174D01*
X111424913Y-78548699D01*
X111305124Y-79002080D01*
X111230151Y-79464976D01*
X111200706Y-79932983D01*
X109306020Y-79932983D01*
X109306362Y-79923210D01*
X109306362Y-79923209D01*
X109322918Y-79449114D01*
X109324553Y-79429643D01*
X109408542Y-78800175D01*
X109412069Y-78780956D01*
X109557083Y-78162687D01*
X109562469Y-78143904D01*
X109767123Y-77542737D01*
X109774316Y-77524569D01*
X110036657Y-76946242D01*
X110045589Y-76928863D01*
X110363112Y-76378897D01*
X110373697Y-76362472D01*
X110743373Y-75846114D01*
X110755510Y-75830801D01*
X111173808Y-75352983D01*
X111187382Y-75338927D01*
X111650312Y-74904207D01*
X111665192Y-74891543D01*
X112168333Y-74504072D01*
X112184378Y-74492920D01*
X112722928Y-74156396D01*
X112739985Y-74146864D01*
X113308804Y-73864500D01*
X113326710Y-73856677D01*
X113920369Y-73631168D01*
X113938952Y-73625130D01*
X114551782Y-73458627D01*
X114570866Y-73454431D01*
X115197020Y-73348525D01*
X115216423Y-73346211D01*
X115849923Y-73301913D01*
X115869458Y-73301504D01*
X116504258Y-73319235D01*
X116504258Y-73319235D01*
G37*
G04 #@! TD*
D14*
G04 #@! TO.C,J1*
X139250000Y-72750000D03*
D13*
X136710000Y-72750000D03*
G04 #@! TD*
D11*
G04 #@! TO.C,JP1*
X149830761Y-72330761D03*
D12*
G36*
X150916294Y-72078226D02*
X150934776Y-72112803D01*
X150946157Y-72150321D01*
X150949999Y-72189340D01*
X150946157Y-72228358D01*
X150934776Y-72265876D01*
X150921704Y-72290333D01*
X151032843Y-72401472D01*
X151057715Y-72431779D01*
X151076197Y-72466357D01*
X151087578Y-72503875D01*
X151091421Y-72542893D01*
X151087578Y-72581911D01*
X151076197Y-72619430D01*
X151057715Y-72654007D01*
X151032843Y-72684314D01*
X150750000Y-72967157D01*
X150719693Y-72992030D01*
X150685115Y-73010512D01*
X150647597Y-73021893D01*
X150608578Y-73025735D01*
X150569560Y-73021893D01*
X150532042Y-73010512D01*
X150497464Y-72992030D01*
X150467157Y-72967157D01*
X150492030Y-72997464D01*
X150510512Y-73032042D01*
X150521893Y-73069560D01*
X150525735Y-73108578D01*
X150521893Y-73147597D01*
X150510512Y-73185115D01*
X150492030Y-73219693D01*
X150467157Y-73250000D01*
X150184314Y-73532843D01*
X150154007Y-73557715D01*
X150119430Y-73576197D01*
X150081911Y-73587578D01*
X150042893Y-73591421D01*
X150003875Y-73587578D01*
X149966357Y-73576197D01*
X149931779Y-73557715D01*
X149901472Y-73532843D01*
X149790333Y-73421704D01*
X149765876Y-73434776D01*
X149728358Y-73446157D01*
X149689340Y-73449999D01*
X149650321Y-73446157D01*
X149612803Y-73434776D01*
X149578226Y-73416294D01*
X149547918Y-73391421D01*
X149159010Y-73002512D01*
X149155113Y-72997765D01*
X149142087Y-72984739D01*
X149128904Y-72970194D01*
X149097777Y-72932264D01*
X149086088Y-72916504D01*
X149058827Y-72875706D01*
X149048735Y-72858868D01*
X149025605Y-72815594D01*
X149017214Y-72797854D01*
X148998436Y-72752521D01*
X148991823Y-72734035D01*
X148977580Y-72687081D01*
X148972813Y-72668050D01*
X148963239Y-72619925D01*
X148960359Y-72600505D01*
X148955549Y-72551674D01*
X148954587Y-72532072D01*
X148954587Y-72483003D01*
X148955549Y-72463402D01*
X148960359Y-72414571D01*
X148963239Y-72395151D01*
X148972813Y-72347026D01*
X148977580Y-72327995D01*
X148991823Y-72281040D01*
X148998436Y-72262554D01*
X149017214Y-72217222D01*
X149025605Y-72199482D01*
X149048735Y-72156207D01*
X149058827Y-72139369D01*
X149086088Y-72098571D01*
X149097777Y-72082811D01*
X149128904Y-72044881D01*
X149142087Y-72030337D01*
X149155113Y-72017310D01*
X149159010Y-72012563D01*
X149512563Y-71659010D01*
X149517310Y-71655113D01*
X149530337Y-71642087D01*
X149544881Y-71628904D01*
X149582811Y-71597777D01*
X149598571Y-71586088D01*
X149639369Y-71558827D01*
X149656207Y-71548735D01*
X149699482Y-71525605D01*
X149717222Y-71517214D01*
X149762554Y-71498436D01*
X149781040Y-71491823D01*
X149827995Y-71477580D01*
X149847026Y-71472813D01*
X149895151Y-71463239D01*
X149914571Y-71460359D01*
X149963402Y-71455549D01*
X149983003Y-71454587D01*
X150032072Y-71454587D01*
X150051674Y-71455549D01*
X150100505Y-71460359D01*
X150119925Y-71463239D01*
X150168050Y-71472813D01*
X150187081Y-71477580D01*
X150234035Y-71491823D01*
X150252521Y-71498436D01*
X150297854Y-71517214D01*
X150315594Y-71525605D01*
X150358868Y-71548735D01*
X150375706Y-71558827D01*
X150416504Y-71586088D01*
X150432264Y-71597777D01*
X150470194Y-71628904D01*
X150484739Y-71642087D01*
X150497765Y-71655113D01*
X150502512Y-71659010D01*
X150891421Y-72047918D01*
X150916294Y-72078226D01*
X150916294Y-72078226D01*
G37*
D11*
X151669239Y-74169239D03*
D12*
G36*
X152344887Y-73502235D02*
X152357913Y-73515261D01*
X152371096Y-73529806D01*
X152402223Y-73567736D01*
X152413912Y-73583496D01*
X152441173Y-73624294D01*
X152451265Y-73641132D01*
X152474395Y-73684406D01*
X152482786Y-73702146D01*
X152501564Y-73747479D01*
X152508177Y-73765965D01*
X152522420Y-73812919D01*
X152527187Y-73831950D01*
X152536761Y-73880075D01*
X152539641Y-73899495D01*
X152544451Y-73948326D01*
X152545413Y-73967928D01*
X152545413Y-74016997D01*
X152544451Y-74036598D01*
X152539641Y-74085429D01*
X152536761Y-74104849D01*
X152527187Y-74152974D01*
X152522420Y-74172005D01*
X152508177Y-74218960D01*
X152501564Y-74237446D01*
X152482786Y-74282778D01*
X152474395Y-74300518D01*
X152451265Y-74343793D01*
X152441173Y-74360631D01*
X152413912Y-74401429D01*
X152402223Y-74417189D01*
X152371096Y-74455119D01*
X152357913Y-74469663D01*
X152344887Y-74482690D01*
X152340990Y-74487437D01*
X151987437Y-74840990D01*
X151982690Y-74844887D01*
X151969663Y-74857913D01*
X151955119Y-74871096D01*
X151917189Y-74902223D01*
X151901429Y-74913912D01*
X151860631Y-74941173D01*
X151843793Y-74951265D01*
X151800518Y-74974395D01*
X151782778Y-74982786D01*
X151737446Y-75001564D01*
X151718960Y-75008177D01*
X151672005Y-75022420D01*
X151652974Y-75027187D01*
X151604849Y-75036761D01*
X151585429Y-75039641D01*
X151536598Y-75044451D01*
X151516997Y-75045413D01*
X151467928Y-75045413D01*
X151448326Y-75044451D01*
X151399495Y-75039641D01*
X151380075Y-75036761D01*
X151331950Y-75027187D01*
X151312919Y-75022420D01*
X151265965Y-75008177D01*
X151247479Y-75001564D01*
X151202146Y-74982786D01*
X151184406Y-74974395D01*
X151141132Y-74951265D01*
X151124294Y-74941173D01*
X151083496Y-74913912D01*
X151067736Y-74902223D01*
X151029806Y-74871096D01*
X151015261Y-74857913D01*
X151002235Y-74844887D01*
X150997488Y-74840990D01*
X150608579Y-74452082D01*
X150583706Y-74421774D01*
X150565224Y-74387197D01*
X150553843Y-74349679D01*
X150550001Y-74310660D01*
X150553843Y-74271642D01*
X150565224Y-74234124D01*
X150583706Y-74199546D01*
X150608579Y-74169239D01*
X151669239Y-73108579D01*
X151699546Y-73083706D01*
X151734124Y-73065224D01*
X151771642Y-73053843D01*
X151810660Y-73050001D01*
X151849679Y-73053843D01*
X151887197Y-73065224D01*
X151921774Y-73083706D01*
X151952082Y-73108579D01*
X152340990Y-73497488D01*
X152344887Y-73502235D01*
X152344887Y-73502235D01*
G37*
D17*
X150750000Y-73250000D03*
D12*
G36*
X149583274Y-73426777D02*
X150926777Y-72083274D01*
X151916726Y-73073223D01*
X150573223Y-74416726D01*
X149583274Y-73426777D01*
X149583274Y-73426777D01*
G37*
G04 #@! TD*
D11*
G04 #@! TO.C,JP2*
X143350001Y-71750000D03*
D12*
G36*
X143889019Y-70803843D02*
X143926538Y-70815224D01*
X143961115Y-70833706D01*
X143991422Y-70858579D01*
X144016295Y-70888886D01*
X144034777Y-70923463D01*
X144042827Y-70950000D01*
X144250001Y-70950000D01*
X144289019Y-70953843D01*
X144326538Y-70965224D01*
X144361115Y-70983706D01*
X144391422Y-71008579D01*
X144416295Y-71038886D01*
X144434777Y-71073463D01*
X144446158Y-71110982D01*
X144450001Y-71150000D01*
X144450001Y-71550000D01*
X144446158Y-71589018D01*
X144434777Y-71626537D01*
X144416295Y-71661114D01*
X144391422Y-71691421D01*
X144361115Y-71716294D01*
X144326538Y-71734776D01*
X144289019Y-71746157D01*
X144250001Y-71750000D01*
X144289019Y-71753843D01*
X144326538Y-71765224D01*
X144361115Y-71783706D01*
X144391422Y-71808579D01*
X144416295Y-71838886D01*
X144434777Y-71873463D01*
X144446158Y-71910982D01*
X144450001Y-71950000D01*
X144450001Y-72350000D01*
X144446158Y-72389018D01*
X144434777Y-72426537D01*
X144416295Y-72461114D01*
X144391422Y-72491421D01*
X144361115Y-72516294D01*
X144326538Y-72534776D01*
X144289019Y-72546157D01*
X144250001Y-72550000D01*
X144042827Y-72550000D01*
X144034777Y-72576537D01*
X144016295Y-72611114D01*
X143991422Y-72641421D01*
X143961115Y-72666294D01*
X143926538Y-72684776D01*
X143889019Y-72696157D01*
X143850001Y-72700000D01*
X143350001Y-72700000D01*
X143343889Y-72699398D01*
X143325467Y-72699398D01*
X143305861Y-72698435D01*
X143257030Y-72693625D01*
X143237621Y-72690746D01*
X143189496Y-72681174D01*
X143170453Y-72676404D01*
X143123498Y-72662160D01*
X143105021Y-72655549D01*
X143059688Y-72636772D01*
X143041940Y-72628377D01*
X142998667Y-72605246D01*
X142981839Y-72595160D01*
X142941040Y-72567900D01*
X142925271Y-72556205D01*
X142887342Y-72525077D01*
X142872801Y-72511897D01*
X142838104Y-72477200D01*
X142824924Y-72462659D01*
X142793796Y-72424730D01*
X142782101Y-72408961D01*
X142754841Y-72368162D01*
X142744755Y-72351334D01*
X142721624Y-72308061D01*
X142713229Y-72290313D01*
X142694452Y-72244980D01*
X142687841Y-72226503D01*
X142673597Y-72179548D01*
X142668827Y-72160505D01*
X142659255Y-72112380D01*
X142656376Y-72092971D01*
X142651566Y-72044140D01*
X142650603Y-72024534D01*
X142650603Y-72006112D01*
X142650001Y-72000000D01*
X142650001Y-71500000D01*
X142650603Y-71493888D01*
X142650603Y-71475466D01*
X142651566Y-71455860D01*
X142656376Y-71407029D01*
X142659255Y-71387620D01*
X142668827Y-71339495D01*
X142673597Y-71320452D01*
X142687841Y-71273497D01*
X142694452Y-71255020D01*
X142713229Y-71209687D01*
X142721624Y-71191939D01*
X142744755Y-71148666D01*
X142754841Y-71131838D01*
X142782101Y-71091039D01*
X142793796Y-71075270D01*
X142824924Y-71037341D01*
X142838104Y-71022800D01*
X142872801Y-70988103D01*
X142887342Y-70974923D01*
X142925271Y-70943795D01*
X142941040Y-70932100D01*
X142981839Y-70904840D01*
X142998667Y-70894754D01*
X143041940Y-70871623D01*
X143059688Y-70863228D01*
X143105021Y-70844451D01*
X143123498Y-70837840D01*
X143170453Y-70823596D01*
X143189496Y-70818826D01*
X143237621Y-70809254D01*
X143257030Y-70806375D01*
X143305861Y-70801565D01*
X143325467Y-70800602D01*
X143343889Y-70800602D01*
X143350001Y-70800000D01*
X143850001Y-70800000D01*
X143889019Y-70803843D01*
X143889019Y-70803843D01*
G37*
D11*
X144649999Y-71750000D03*
D12*
G36*
X144656111Y-70800602D02*
X144674533Y-70800602D01*
X144694139Y-70801565D01*
X144742970Y-70806375D01*
X144762379Y-70809254D01*
X144810504Y-70818826D01*
X144829547Y-70823596D01*
X144876502Y-70837840D01*
X144894979Y-70844451D01*
X144940312Y-70863228D01*
X144958060Y-70871623D01*
X145001333Y-70894754D01*
X145018161Y-70904840D01*
X145058960Y-70932100D01*
X145074729Y-70943795D01*
X145112658Y-70974923D01*
X145127199Y-70988103D01*
X145161896Y-71022800D01*
X145175076Y-71037341D01*
X145206204Y-71075270D01*
X145217899Y-71091039D01*
X145245159Y-71131838D01*
X145255245Y-71148666D01*
X145278376Y-71191939D01*
X145286771Y-71209687D01*
X145305548Y-71255020D01*
X145312159Y-71273497D01*
X145326403Y-71320452D01*
X145331173Y-71339495D01*
X145340745Y-71387620D01*
X145343624Y-71407029D01*
X145348434Y-71455860D01*
X145349397Y-71475466D01*
X145349397Y-71493888D01*
X145349999Y-71500000D01*
X145349999Y-72000000D01*
X145349397Y-72006112D01*
X145349397Y-72024534D01*
X145348434Y-72044140D01*
X145343624Y-72092971D01*
X145340745Y-72112380D01*
X145331173Y-72160505D01*
X145326403Y-72179548D01*
X145312159Y-72226503D01*
X145305548Y-72244980D01*
X145286771Y-72290313D01*
X145278376Y-72308061D01*
X145255245Y-72351334D01*
X145245159Y-72368162D01*
X145217899Y-72408961D01*
X145206204Y-72424730D01*
X145175076Y-72462659D01*
X145161896Y-72477200D01*
X145127199Y-72511897D01*
X145112658Y-72525077D01*
X145074729Y-72556205D01*
X145058960Y-72567900D01*
X145018161Y-72595160D01*
X145001333Y-72605246D01*
X144958060Y-72628377D01*
X144940312Y-72636772D01*
X144894979Y-72655549D01*
X144876502Y-72662160D01*
X144829547Y-72676404D01*
X144810504Y-72681174D01*
X144762379Y-72690746D01*
X144742970Y-72693625D01*
X144694139Y-72698435D01*
X144674533Y-72699398D01*
X144656111Y-72699398D01*
X144649999Y-72700000D01*
X144149999Y-72700000D01*
X144110981Y-72696157D01*
X144073462Y-72684776D01*
X144038885Y-72666294D01*
X144008578Y-72641421D01*
X143983705Y-72611114D01*
X143965223Y-72576537D01*
X143953842Y-72539018D01*
X143949999Y-72500000D01*
X143949999Y-71000000D01*
X143953842Y-70960982D01*
X143965223Y-70923463D01*
X143983705Y-70888886D01*
X144008578Y-70858579D01*
X144038885Y-70833706D01*
X144073462Y-70815224D01*
X144110981Y-70803843D01*
X144149999Y-70800000D01*
X144649999Y-70800000D01*
X144656111Y-70800602D01*
X144656111Y-70800602D01*
G37*
G04 #@! TD*
M02*
