G04 #@! TF.GenerationSoftware,KiCad,Pcbnew,(5.0.1-dev-70-gb7b125d83)*
G04 #@! TF.CreationDate,2019-02-14T00:16:49+01:00*
G04 #@! TF.ProjectId,piezothing,7069657A6F7468696E672E6B69636164,rev?*
G04 #@! TF.SameCoordinates,Original*
G04 #@! TF.FileFunction,Profile,NP*
%FSLAX46Y46*%
G04 Gerber Fmt 4.6, Leading zero omitted, Abs format (unit mm)*
G04 Created by KiCad (PCBNEW (5.0.1-dev-70-gb7b125d83)) date 02/14/19 00:16:49*
%MOMM*%
%LPD*%
G01*
G04 APERTURE LIST*
%ADD10C,0.100000*%
G04 APERTURE END LIST*
D10*
X151971668Y-90000000D02*
X160000000Y-81971668D01*
X160000000Y-81971668D02*
X160000000Y-78028332D01*
X160000000Y-78028332D02*
X151971668Y-70000000D01*
X117388889Y-84803227D02*
G75*
G02X116750000Y-84322904I-138889J480323D01*
G01*
X115250000Y-84322904D02*
G75*
G02X114611111Y-84803227I-500000J0D01*
G01*
X151971668Y-70000000D02*
X108028332Y-70000000D01*
X100000000Y-81971668D02*
X108028332Y-90000000D01*
X108028332Y-90000000D02*
X151971668Y-90000000D01*
X143250000Y-78569091D02*
G75*
G02X143078947Y-78945646I-500000J0D01*
G01*
X114611111Y-84803227D02*
G75*
G02X117388889Y-84803227I1388889J4803227D01*
G01*
X116750000Y-84322904D02*
X116750000Y-81430909D01*
X132750000Y-80000000D02*
G75*
G03X132750000Y-80000000I-2750000J0D01*
G01*
X108028332Y-70000000D02*
X100000000Y-78028332D01*
X142611111Y-75196773D02*
G75*
G02X143250000Y-75677096I138889J-480323D01*
G01*
X143250000Y-75677096D02*
X143250000Y-78569091D01*
X100000000Y-78028332D02*
X100000000Y-81971668D01*
X115078948Y-81054354D02*
G75*
G02X116921053Y-81054354I921052J1054354D01*
G01*
X116750000Y-81430909D02*
G75*
G02X116921053Y-81054354I500000J0D01*
G01*
X115250000Y-81430909D02*
X115250000Y-84322904D01*
X115078947Y-81054354D02*
G75*
G02X115250000Y-81430909I-328947J-376555D01*
G01*
X145388889Y-75196773D02*
G75*
G02X142611111Y-75196773I-1388889J-4803227D01*
G01*
X144921053Y-78945646D02*
G75*
G02X144750000Y-78569091I328947J376555D01*
G01*
X144750000Y-75677096D02*
G75*
G02X145388889Y-75196773I500000J0D01*
G01*
X144750000Y-78569091D02*
X144750000Y-75677096D01*
X144921052Y-78945646D02*
G75*
G02X143078947Y-78945646I-921052J-1054354D01*
G01*
M02*
