G04 #@! TF.GenerationSoftware,KiCad,Pcbnew,(5.0.1-dev-70-gb7b125d83)*
G04 #@! TF.CreationDate,2019-02-14T00:16:49+01:00*
G04 #@! TF.ProjectId,piezothing,7069657A6F7468696E672E6B69636164,rev?*
G04 #@! TF.SameCoordinates,Original*
G04 #@! TF.FileFunction,Soldermask,Top*
G04 #@! TF.FilePolarity,Negative*
%FSLAX46Y46*%
G04 Gerber Fmt 4.6, Leading zero omitted, Abs format (unit mm)*
G04 Created by KiCad (PCBNEW (5.0.1-dev-70-gb7b125d83)) date 02/14/19 00:16:49*
%MOMM*%
%LPD*%
G01*
G04 APERTURE LIST*
%ADD10C,0.010000*%
%ADD11C,3.600000*%
%ADD12C,3.400000*%
%ADD13R,2.100000X2.100000*%
%ADD14O,2.100000X2.100000*%
G04 APERTURE END LIST*
D10*
G04 #@! TO.C,G\002A\002A\002A*
G36*
X118387730Y-71881303D02*
X118470345Y-71962655D01*
X118506182Y-72049414D01*
X118471099Y-72127681D01*
X118391403Y-72209657D01*
X118305425Y-72258412D01*
X118286480Y-72261091D01*
X118215722Y-72231297D01*
X118163117Y-72188520D01*
X118104233Y-72103484D01*
X118090545Y-72053273D01*
X118127296Y-71962276D01*
X118210912Y-71879707D01*
X118298364Y-71845455D01*
X118387730Y-71881303D01*
X118387730Y-71881303D01*
G37*
X118387730Y-71881303D02*
X118470345Y-71962655D01*
X118506182Y-72049414D01*
X118471099Y-72127681D01*
X118391403Y-72209657D01*
X118305425Y-72258412D01*
X118286480Y-72261091D01*
X118215722Y-72231297D01*
X118163117Y-72188520D01*
X118104233Y-72103484D01*
X118090545Y-72053273D01*
X118127296Y-71962276D01*
X118210912Y-71879707D01*
X118298364Y-71845455D01*
X118387730Y-71881303D01*
G36*
X119005146Y-71888184D02*
X119080459Y-71984808D01*
X119088504Y-72010769D01*
X119085474Y-72140367D01*
X119019780Y-72227620D01*
X118916592Y-72258764D01*
X118801076Y-72220034D01*
X118763480Y-72188520D01*
X118697517Y-72084476D01*
X118720749Y-71983922D01*
X118779963Y-71917722D01*
X118895213Y-71862877D01*
X119005146Y-71888184D01*
X119005146Y-71888184D01*
G37*
X119005146Y-71888184D02*
X119080459Y-71984808D01*
X119088504Y-72010769D01*
X119085474Y-72140367D01*
X119019780Y-72227620D01*
X118916592Y-72258764D01*
X118801076Y-72220034D01*
X118763480Y-72188520D01*
X118697517Y-72084476D01*
X118720749Y-71983922D01*
X118779963Y-71917722D01*
X118895213Y-71862877D01*
X119005146Y-71888184D01*
G36*
X122543011Y-70491496D02*
X122603914Y-70505591D01*
X123073743Y-70651845D01*
X123469765Y-70847000D01*
X123789849Y-71089588D01*
X124031868Y-71378144D01*
X124132000Y-71558188D01*
X124184476Y-71677484D01*
X124219611Y-71785099D01*
X124240798Y-71904241D01*
X124251430Y-72058117D01*
X124254901Y-72269935D01*
X124255018Y-72399636D01*
X124245546Y-72749798D01*
X124211889Y-73035411D01*
X124144574Y-73275319D01*
X124034124Y-73488362D01*
X123871066Y-73693382D01*
X123645924Y-73909220D01*
X123387971Y-74123827D01*
X123143218Y-74358631D01*
X122985888Y-74603870D01*
X122911082Y-74867257D01*
X122909986Y-74876155D01*
X122900359Y-75029249D01*
X122920189Y-75120909D01*
X122957480Y-75166191D01*
X123024725Y-75243515D01*
X123004479Y-75291244D01*
X122896751Y-75309362D01*
X122881909Y-75309542D01*
X122755602Y-75329554D01*
X122592100Y-75380471D01*
X122484778Y-75424997D01*
X122351112Y-75486347D01*
X122256616Y-75528069D01*
X122225637Y-75540000D01*
X122224266Y-75500950D01*
X122236973Y-75417394D01*
X122260411Y-75294787D01*
X121999660Y-75325433D01*
X121834696Y-75334265D01*
X121751513Y-75315498D01*
X121745554Y-75274356D01*
X121812266Y-75216061D01*
X121947093Y-75145838D01*
X122145480Y-75068911D01*
X122254206Y-75033520D01*
X122411798Y-74976131D01*
X122531726Y-74916229D01*
X122588291Y-74866678D01*
X122588475Y-74866213D01*
X122604892Y-74778932D01*
X122614914Y-74639865D01*
X122616364Y-74562852D01*
X122606445Y-74406649D01*
X122565838Y-74298210D01*
X122478263Y-74194068D01*
X122478260Y-74194065D01*
X122333608Y-74091849D01*
X122199010Y-74075401D01*
X122081656Y-74138172D01*
X121988734Y-74273611D01*
X121927434Y-74475167D01*
X121905102Y-74716332D01*
X121901441Y-74985818D01*
X121746340Y-74985818D01*
X121605226Y-75013617D01*
X121476828Y-75108903D01*
X121457256Y-75129248D01*
X121323273Y-75272677D01*
X121323273Y-75126136D01*
X121315574Y-75027350D01*
X121279400Y-74998784D01*
X121219364Y-75011105D01*
X121107568Y-75066166D01*
X121011545Y-75137722D01*
X120939378Y-75197855D01*
X120911597Y-75195019D01*
X120907636Y-75152469D01*
X120950580Y-74977077D01*
X121076097Y-74836011D01*
X121279219Y-74734149D01*
X121357148Y-74711299D01*
X121453262Y-74684124D01*
X121517748Y-74648918D01*
X121560570Y-74587265D01*
X121591692Y-74480752D01*
X121621079Y-74310963D01*
X121639208Y-74190033D01*
X121657957Y-74037162D01*
X121654758Y-73952143D01*
X121626911Y-73912491D01*
X121604784Y-73903206D01*
X121538141Y-73888502D01*
X121395742Y-73860539D01*
X121192776Y-73822182D01*
X120944432Y-73776296D01*
X120665900Y-73725747D01*
X120628229Y-73718976D01*
X120108651Y-73619709D01*
X119673179Y-73522470D01*
X119313699Y-73424140D01*
X119022097Y-73321599D01*
X118790259Y-73211731D01*
X118610070Y-73091417D01*
X118473418Y-72957537D01*
X118406118Y-72864965D01*
X118331167Y-72731654D01*
X118283826Y-72618365D01*
X118275273Y-72575322D01*
X118247463Y-72512213D01*
X118152013Y-72492090D01*
X118141511Y-72492000D01*
X117992904Y-72449485D01*
X117861997Y-72336604D01*
X117766002Y-72175353D01*
X117737479Y-72053375D01*
X117787225Y-72053375D01*
X117848216Y-72215547D01*
X117954348Y-72341435D01*
X118089359Y-72419120D01*
X118236986Y-72436681D01*
X118380968Y-72382198D01*
X118432186Y-72339285D01*
X118516546Y-72244044D01*
X118568632Y-72166103D01*
X118598683Y-72122547D01*
X118628459Y-72166103D01*
X118725426Y-72302420D01*
X118862760Y-72404253D01*
X119005275Y-72445774D01*
X119009507Y-72445818D01*
X119176215Y-72406865D01*
X119302713Y-72303860D01*
X119385319Y-72157587D01*
X119420350Y-71988829D01*
X119404120Y-71818371D01*
X119332948Y-71666994D01*
X119203148Y-71555483D01*
X119170071Y-71539895D01*
X118994843Y-71504103D01*
X118837179Y-71554954D01*
X118690707Y-71691915D01*
X118613154Y-71769664D01*
X118568901Y-71772102D01*
X118565545Y-71765254D01*
X118470198Y-71619827D01*
X118321987Y-71517867D01*
X118249042Y-71495138D01*
X118098508Y-71508976D01*
X117954124Y-71593086D01*
X117840899Y-71727321D01*
X117787637Y-71866840D01*
X117787225Y-72053375D01*
X117737479Y-72053375D01*
X117722128Y-71987729D01*
X117721091Y-71954684D01*
X117732918Y-71806818D01*
X117781759Y-71696687D01*
X117878109Y-71586836D01*
X118009185Y-71478466D01*
X118134441Y-71433887D01*
X118198656Y-71429818D01*
X118316061Y-71442733D01*
X118388756Y-71474367D01*
X118393068Y-71479787D01*
X118444860Y-71487523D01*
X118537306Y-71421514D01*
X118545884Y-71413452D01*
X118655600Y-71323816D01*
X118777081Y-71262351D01*
X118930088Y-71224250D01*
X119134383Y-71204709D01*
X119409728Y-71198924D01*
X119428249Y-71198909D01*
X119928666Y-71198909D01*
X120198788Y-70996889D01*
X120636564Y-70717081D01*
X121083490Y-70527942D01*
X121545951Y-70428168D01*
X122030329Y-70416453D01*
X122543011Y-70491496D01*
X122543011Y-70491496D01*
G37*
X122543011Y-70491496D02*
X122603914Y-70505591D01*
X123073743Y-70651845D01*
X123469765Y-70847000D01*
X123789849Y-71089588D01*
X124031868Y-71378144D01*
X124132000Y-71558188D01*
X124184476Y-71677484D01*
X124219611Y-71785099D01*
X124240798Y-71904241D01*
X124251430Y-72058117D01*
X124254901Y-72269935D01*
X124255018Y-72399636D01*
X124245546Y-72749798D01*
X124211889Y-73035411D01*
X124144574Y-73275319D01*
X124034124Y-73488362D01*
X123871066Y-73693382D01*
X123645924Y-73909220D01*
X123387971Y-74123827D01*
X123143218Y-74358631D01*
X122985888Y-74603870D01*
X122911082Y-74867257D01*
X122909986Y-74876155D01*
X122900359Y-75029249D01*
X122920189Y-75120909D01*
X122957480Y-75166191D01*
X123024725Y-75243515D01*
X123004479Y-75291244D01*
X122896751Y-75309362D01*
X122881909Y-75309542D01*
X122755602Y-75329554D01*
X122592100Y-75380471D01*
X122484778Y-75424997D01*
X122351112Y-75486347D01*
X122256616Y-75528069D01*
X122225637Y-75540000D01*
X122224266Y-75500950D01*
X122236973Y-75417394D01*
X122260411Y-75294787D01*
X121999660Y-75325433D01*
X121834696Y-75334265D01*
X121751513Y-75315498D01*
X121745554Y-75274356D01*
X121812266Y-75216061D01*
X121947093Y-75145838D01*
X122145480Y-75068911D01*
X122254206Y-75033520D01*
X122411798Y-74976131D01*
X122531726Y-74916229D01*
X122588291Y-74866678D01*
X122588475Y-74866213D01*
X122604892Y-74778932D01*
X122614914Y-74639865D01*
X122616364Y-74562852D01*
X122606445Y-74406649D01*
X122565838Y-74298210D01*
X122478263Y-74194068D01*
X122478260Y-74194065D01*
X122333608Y-74091849D01*
X122199010Y-74075401D01*
X122081656Y-74138172D01*
X121988734Y-74273611D01*
X121927434Y-74475167D01*
X121905102Y-74716332D01*
X121901441Y-74985818D01*
X121746340Y-74985818D01*
X121605226Y-75013617D01*
X121476828Y-75108903D01*
X121457256Y-75129248D01*
X121323273Y-75272677D01*
X121323273Y-75126136D01*
X121315574Y-75027350D01*
X121279400Y-74998784D01*
X121219364Y-75011105D01*
X121107568Y-75066166D01*
X121011545Y-75137722D01*
X120939378Y-75197855D01*
X120911597Y-75195019D01*
X120907636Y-75152469D01*
X120950580Y-74977077D01*
X121076097Y-74836011D01*
X121279219Y-74734149D01*
X121357148Y-74711299D01*
X121453262Y-74684124D01*
X121517748Y-74648918D01*
X121560570Y-74587265D01*
X121591692Y-74480752D01*
X121621079Y-74310963D01*
X121639208Y-74190033D01*
X121657957Y-74037162D01*
X121654758Y-73952143D01*
X121626911Y-73912491D01*
X121604784Y-73903206D01*
X121538141Y-73888502D01*
X121395742Y-73860539D01*
X121192776Y-73822182D01*
X120944432Y-73776296D01*
X120665900Y-73725747D01*
X120628229Y-73718976D01*
X120108651Y-73619709D01*
X119673179Y-73522470D01*
X119313699Y-73424140D01*
X119022097Y-73321599D01*
X118790259Y-73211731D01*
X118610070Y-73091417D01*
X118473418Y-72957537D01*
X118406118Y-72864965D01*
X118331167Y-72731654D01*
X118283826Y-72618365D01*
X118275273Y-72575322D01*
X118247463Y-72512213D01*
X118152013Y-72492090D01*
X118141511Y-72492000D01*
X117992904Y-72449485D01*
X117861997Y-72336604D01*
X117766002Y-72175353D01*
X117737479Y-72053375D01*
X117787225Y-72053375D01*
X117848216Y-72215547D01*
X117954348Y-72341435D01*
X118089359Y-72419120D01*
X118236986Y-72436681D01*
X118380968Y-72382198D01*
X118432186Y-72339285D01*
X118516546Y-72244044D01*
X118568632Y-72166103D01*
X118598683Y-72122547D01*
X118628459Y-72166103D01*
X118725426Y-72302420D01*
X118862760Y-72404253D01*
X119005275Y-72445774D01*
X119009507Y-72445818D01*
X119176215Y-72406865D01*
X119302713Y-72303860D01*
X119385319Y-72157587D01*
X119420350Y-71988829D01*
X119404120Y-71818371D01*
X119332948Y-71666994D01*
X119203148Y-71555483D01*
X119170071Y-71539895D01*
X118994843Y-71504103D01*
X118837179Y-71554954D01*
X118690707Y-71691915D01*
X118613154Y-71769664D01*
X118568901Y-71772102D01*
X118565545Y-71765254D01*
X118470198Y-71619827D01*
X118321987Y-71517867D01*
X118249042Y-71495138D01*
X118098508Y-71508976D01*
X117954124Y-71593086D01*
X117840899Y-71727321D01*
X117787637Y-71866840D01*
X117787225Y-72053375D01*
X117737479Y-72053375D01*
X117722128Y-71987729D01*
X117721091Y-71954684D01*
X117732918Y-71806818D01*
X117781759Y-71696687D01*
X117878109Y-71586836D01*
X118009185Y-71478466D01*
X118134441Y-71433887D01*
X118198656Y-71429818D01*
X118316061Y-71442733D01*
X118388756Y-71474367D01*
X118393068Y-71479787D01*
X118444860Y-71487523D01*
X118537306Y-71421514D01*
X118545884Y-71413452D01*
X118655600Y-71323816D01*
X118777081Y-71262351D01*
X118930088Y-71224250D01*
X119134383Y-71204709D01*
X119409728Y-71198924D01*
X119428249Y-71198909D01*
X119928666Y-71198909D01*
X120198788Y-70996889D01*
X120636564Y-70717081D01*
X121083490Y-70527942D01*
X121545951Y-70428168D01*
X122030329Y-70416453D01*
X122543011Y-70491496D01*
G04 #@! TD*
D11*
G04 #@! TO.C,REF\002A\002A*
X105000000Y-80000000D03*
G04 #@! TD*
G04 #@! TO.C,REF\002A\002A*
X155000000Y-80000000D03*
G04 #@! TD*
D12*
G04 #@! TO.C,REF\002A\002A*
X116000000Y-80000000D03*
G04 #@! TD*
G04 #@! TO.C,REF\002A\002A*
X144000000Y-80000000D03*
G04 #@! TD*
D13*
G04 #@! TO.C,J1*
X139250000Y-72750000D03*
D14*
X136710000Y-72750000D03*
G04 #@! TD*
M02*
