G04 #@! TF.GenerationSoftware,KiCad,Pcbnew,(5.0.1-dev-70-gb7b125d83)*
G04 #@! TF.CreationDate,2019-03-02T22:20:39+01:00*
G04 #@! TF.ProjectId,piezothing,7069657A6F7468696E672E6B69636164,rev?*
G04 #@! TF.SameCoordinates,Original*
G04 #@! TF.FileFunction,Copper,L2,Bot,Signal*
G04 #@! TF.FilePolarity,Positive*
%FSLAX46Y46*%
G04 Gerber Fmt 4.6, Leading zero omitted, Abs format (unit mm)*
G04 Created by KiCad (PCBNEW (5.0.1-dev-70-gb7b125d83)) date 03/02/19 22:20:39*
%MOMM*%
%LPD*%
G01*
G04 APERTURE LIST*
G04 #@! TA.AperFunction,EtchedComponent*
%ADD10C,0.010000*%
G04 #@! TD*
G04 #@! TA.AperFunction,SMDPad,CuDef*
%ADD11C,0.500000*%
G04 #@! TD*
G04 #@! TA.AperFunction,Conductor*
%ADD12C,0.100000*%
G04 #@! TD*
G04 #@! TA.AperFunction,ComponentPad*
%ADD13O,1.700000X1.700000*%
G04 #@! TD*
G04 #@! TA.AperFunction,ComponentPad*
%ADD14R,1.700000X1.700000*%
G04 #@! TD*
G04 #@! TA.AperFunction,ComponentPad*
%ADD15C,3.000000*%
G04 #@! TD*
G04 #@! TA.AperFunction,SMDPad,CuDef*
%ADD16C,1.000000*%
G04 #@! TD*
G04 #@! TA.AperFunction,ViaPad*
%ADD17C,0.800000*%
G04 #@! TD*
G04 #@! TA.AperFunction,Conductor*
%ADD18C,0.250000*%
G04 #@! TD*
G04 #@! TA.AperFunction,Conductor*
%ADD19C,0.200000*%
G04 #@! TD*
G04 APERTURE END LIST*
D10*
G04 #@! TO.C,G\002A\002A\002A*
G36*
X135005146Y-88111816D02*
X135080459Y-88015192D01*
X135088504Y-87989231D01*
X135085474Y-87859633D01*
X135019780Y-87772380D01*
X134916592Y-87741236D01*
X134801076Y-87779966D01*
X134763480Y-87811480D01*
X134697517Y-87915524D01*
X134720749Y-88016078D01*
X134779963Y-88082278D01*
X134895213Y-88137123D01*
X135005146Y-88111816D01*
X135005146Y-88111816D01*
G37*
X135005146Y-88111816D02*
X135080459Y-88015192D01*
X135088504Y-87989231D01*
X135085474Y-87859633D01*
X135019780Y-87772380D01*
X134916592Y-87741236D01*
X134801076Y-87779966D01*
X134763480Y-87811480D01*
X134697517Y-87915524D01*
X134720749Y-88016078D01*
X134779963Y-88082278D01*
X134895213Y-88137123D01*
X135005146Y-88111816D01*
G36*
X134387730Y-88118697D02*
X134470345Y-88037345D01*
X134506182Y-87950586D01*
X134471099Y-87872319D01*
X134391403Y-87790343D01*
X134305425Y-87741588D01*
X134286480Y-87738909D01*
X134215722Y-87768703D01*
X134163117Y-87811480D01*
X134104233Y-87896516D01*
X134090545Y-87946727D01*
X134127296Y-88037724D01*
X134210912Y-88120293D01*
X134298364Y-88154545D01*
X134387730Y-88118697D01*
X134387730Y-88118697D01*
G37*
X134387730Y-88118697D02*
X134470345Y-88037345D01*
X134506182Y-87950586D01*
X134471099Y-87872319D01*
X134391403Y-87790343D01*
X134305425Y-87741588D01*
X134286480Y-87738909D01*
X134215722Y-87768703D01*
X134163117Y-87811480D01*
X134104233Y-87896516D01*
X134090545Y-87946727D01*
X134127296Y-88037724D01*
X134210912Y-88120293D01*
X134298364Y-88154545D01*
X134387730Y-88118697D01*
G04 #@! TD*
D11*
G04 #@! TO.P,REF\002A\002A,e*
G04 #@! TO.N,/K2*
X144000000Y-80000000D03*
D12*
G04 #@! TD*
G04 #@! TO.N,/K2*
G04 #@! TO.C,REF\002A\002A*
G36*
X143501326Y-86480843D02*
X142871287Y-86401250D01*
X142252021Y-86260557D01*
X141649440Y-86060105D01*
X141069296Y-85801808D01*
X140517126Y-85488132D01*
X139998200Y-85122070D01*
X139517473Y-84707117D01*
X139079532Y-84247234D01*
X138688558Y-83746810D01*
X138348283Y-83210622D01*
X138061955Y-82643788D01*
X137832306Y-82051719D01*
X137661529Y-81440065D01*
X137551254Y-80814666D01*
X137502534Y-80181491D01*
X137500000Y-80000000D01*
X137531022Y-79365711D01*
X137623791Y-78737477D01*
X137777423Y-78121293D01*
X137990451Y-77523043D01*
X138260841Y-76948435D01*
X138586012Y-76402955D01*
X138962861Y-75891810D01*
X139387790Y-75419878D01*
X139856744Y-74991664D01*
X140365246Y-74611256D01*
X140908443Y-74282284D01*
X141481149Y-74007890D01*
X142077898Y-73790691D01*
X142692994Y-73632761D01*
X143320565Y-73535608D01*
X143954622Y-73500158D01*
X144589112Y-73526751D01*
X145217979Y-73615133D01*
X145835219Y-73764459D01*
X146434943Y-73973305D01*
X147011424Y-74239677D01*
X147559161Y-74561032D01*
X148072925Y-74934303D01*
X148547812Y-75355928D01*
X148979289Y-75821881D01*
X149363238Y-76327714D01*
X149695993Y-76868601D01*
X149974380Y-77439378D01*
X150195739Y-78034596D01*
X150357959Y-78648574D01*
X150459491Y-79275452D01*
X150499366Y-79909246D01*
X150493760Y-80069811D01*
X148999513Y-80069811D01*
X148982464Y-79581611D01*
X148917857Y-79097404D01*
X148806308Y-78621813D01*
X148648882Y-78159377D01*
X148447082Y-77714510D01*
X148202833Y-77291459D01*
X147918467Y-76894261D01*
X147596699Y-76526708D01*
X147240600Y-76192308D01*
X146853568Y-75894254D01*
X146439298Y-75635390D01*
X146001745Y-75418186D01*
X145545085Y-75244717D01*
X145073677Y-75116639D01*
X144592020Y-75035172D01*
X144104712Y-75001097D01*
X143616405Y-75014736D01*
X143131759Y-75075961D01*
X142655401Y-75184187D01*
X142191877Y-75338381D01*
X141745612Y-75537071D01*
X141320866Y-75778360D01*
X140921693Y-76059946D01*
X140551902Y-76379141D01*
X140215025Y-76732897D01*
X139914276Y-77117838D01*
X139652525Y-77530291D01*
X139432273Y-77966317D01*
X139255620Y-78421755D01*
X139124253Y-78892258D01*
X139039426Y-79373334D01*
X139001949Y-79860392D01*
X139000000Y-80000000D01*
X139023863Y-80487914D01*
X139095224Y-80971172D01*
X139213403Y-81445159D01*
X139377270Y-81905352D01*
X139585262Y-82347358D01*
X139835394Y-82766958D01*
X140125278Y-83160147D01*
X140452146Y-83523171D01*
X140812880Y-83852566D01*
X141204035Y-84145188D01*
X141621879Y-84398243D01*
X142062422Y-84609316D01*
X142521460Y-84776392D01*
X142994610Y-84897876D01*
X143477358Y-84972609D01*
X143750000Y-84987852D01*
X143750000Y-80000000D01*
X143750301Y-80000000D01*
X143750301Y-79987733D01*
X143752706Y-79963317D01*
X143757492Y-79939255D01*
X143764614Y-79915778D01*
X143774003Y-79893111D01*
X143785568Y-79871474D01*
X143799198Y-79851075D01*
X143814762Y-79832110D01*
X143832110Y-79814762D01*
X143851075Y-79799198D01*
X143871474Y-79785568D01*
X143893111Y-79774003D01*
X143915778Y-79764614D01*
X143939255Y-79757492D01*
X143963317Y-79752706D01*
X143987733Y-79750301D01*
X144012267Y-79750301D01*
X144036683Y-79752706D01*
X144060745Y-79757492D01*
X144084222Y-79764614D01*
X144106889Y-79774003D01*
X144128526Y-79785568D01*
X144148925Y-79799198D01*
X144167890Y-79814762D01*
X144185238Y-79832110D01*
X144200802Y-79851075D01*
X144214432Y-79871474D01*
X144225997Y-79893111D01*
X144235386Y-79915778D01*
X144242508Y-79939255D01*
X144247294Y-79963317D01*
X144249699Y-79987733D01*
X144249699Y-80000000D01*
X144250000Y-80000000D01*
X144250000Y-84987937D01*
X144453163Y-84979422D01*
X144936907Y-84911436D01*
X145411707Y-84796570D01*
X145873033Y-84635919D01*
X146316480Y-84431018D01*
X146737816Y-84183822D01*
X147133019Y-83896690D01*
X147498317Y-83572363D01*
X147830222Y-83213938D01*
X148125567Y-82824835D01*
X148381533Y-82408768D01*
X148595677Y-81969710D01*
X148765953Y-81511849D01*
X148890738Y-81039558D01*
X148968840Y-80557345D01*
X148999513Y-80069811D01*
X150493760Y-80069811D01*
X150477204Y-80543906D01*
X150393215Y-81173374D01*
X150248201Y-81791643D01*
X150043547Y-82392810D01*
X149781206Y-82971137D01*
X149463683Y-83521103D01*
X149094007Y-84037461D01*
X148675709Y-84515279D01*
X148212779Y-84949999D01*
X147709638Y-85337470D01*
X147171088Y-85673994D01*
X146602269Y-85956358D01*
X146008610Y-86181867D01*
X145395780Y-86348370D01*
X144769626Y-86454276D01*
X144136126Y-86498574D01*
X143501326Y-86480843D01*
X143501326Y-86480843D01*
G37*
D13*
G04 #@! TO.P,J1,2*
G04 #@! TO.N,/A2*
X118210000Y-72750000D03*
D14*
G04 #@! TO.P,J1,1*
G04 #@! TO.N,/K1*
X120750000Y-72750000D03*
G04 #@! TD*
D15*
G04 #@! TO.P,REF\002A\002A,1*
G04 #@! TO.N,/A1*
X116000000Y-80000000D03*
G04 #@! TD*
G04 #@! TO.P,REF\002A\002A,1*
G04 #@! TO.N,/A2*
X144000000Y-80000000D03*
G04 #@! TD*
D11*
G04 #@! TO.P,REF\002A\002A,e*
G04 #@! TO.N,/K1*
X116000000Y-80000000D03*
D12*
G04 #@! TD*
G04 #@! TO.N,/K1*
G04 #@! TO.C,REF\002A\002A*
G36*
X116498674Y-73519157D02*
X117128713Y-73598750D01*
X117747979Y-73739443D01*
X118350560Y-73939895D01*
X118930704Y-74198192D01*
X119482874Y-74511868D01*
X120001800Y-74877930D01*
X120482527Y-75292883D01*
X120920468Y-75752766D01*
X121311442Y-76253190D01*
X121651717Y-76789378D01*
X121938045Y-77356212D01*
X122167694Y-77948281D01*
X122338471Y-78559935D01*
X122448746Y-79185334D01*
X122497466Y-79818509D01*
X122500000Y-80000000D01*
X122468978Y-80634289D01*
X122376209Y-81262523D01*
X122222577Y-81878707D01*
X122009549Y-82476957D01*
X121739159Y-83051565D01*
X121413988Y-83597045D01*
X121037139Y-84108190D01*
X120612210Y-84580122D01*
X120143256Y-85008336D01*
X119634754Y-85388744D01*
X119091557Y-85717716D01*
X118518851Y-85992110D01*
X117922102Y-86209309D01*
X117307006Y-86367239D01*
X116679435Y-86464392D01*
X116045378Y-86499842D01*
X115410888Y-86473249D01*
X114782021Y-86384867D01*
X114164781Y-86235541D01*
X113565057Y-86026695D01*
X112988576Y-85760323D01*
X112440839Y-85438968D01*
X111927075Y-85065697D01*
X111452188Y-84644072D01*
X111020711Y-84178119D01*
X110636762Y-83672286D01*
X110304007Y-83131399D01*
X110025620Y-82560622D01*
X109804261Y-81965404D01*
X109642041Y-81351426D01*
X109540509Y-80724548D01*
X109500634Y-80090754D01*
X109506240Y-79930189D01*
X111000487Y-79930189D01*
X111017536Y-80418389D01*
X111082143Y-80902596D01*
X111193692Y-81378187D01*
X111351118Y-81840623D01*
X111552918Y-82285490D01*
X111797167Y-82708541D01*
X112081533Y-83105739D01*
X112403301Y-83473292D01*
X112759400Y-83807692D01*
X113146432Y-84105746D01*
X113560702Y-84364610D01*
X113998255Y-84581814D01*
X114454915Y-84755283D01*
X114926323Y-84883361D01*
X115407980Y-84964828D01*
X115895288Y-84998903D01*
X116383595Y-84985264D01*
X116868241Y-84924039D01*
X117344599Y-84815813D01*
X117808123Y-84661619D01*
X118254388Y-84462929D01*
X118679134Y-84221640D01*
X119078307Y-83940054D01*
X119448098Y-83620859D01*
X119784975Y-83267103D01*
X120085724Y-82882162D01*
X120347475Y-82469709D01*
X120567727Y-82033683D01*
X120744380Y-81578245D01*
X120875747Y-81107742D01*
X120960574Y-80626666D01*
X120998051Y-80139608D01*
X121000000Y-80000000D01*
X120976137Y-79512086D01*
X120904776Y-79028828D01*
X120786597Y-78554841D01*
X120622730Y-78094648D01*
X120414738Y-77652642D01*
X120164606Y-77233042D01*
X119874722Y-76839853D01*
X119547854Y-76476829D01*
X119187120Y-76147434D01*
X118795965Y-75854812D01*
X118378121Y-75601757D01*
X117937578Y-75390684D01*
X117478540Y-75223608D01*
X117005390Y-75102124D01*
X116522642Y-75027391D01*
X116250000Y-75012148D01*
X116250000Y-80000000D01*
X116249699Y-80000000D01*
X116249699Y-80012267D01*
X116247294Y-80036683D01*
X116242508Y-80060745D01*
X116235386Y-80084222D01*
X116225997Y-80106889D01*
X116214432Y-80128526D01*
X116200802Y-80148925D01*
X116185238Y-80167890D01*
X116167890Y-80185238D01*
X116148925Y-80200802D01*
X116128526Y-80214432D01*
X116106889Y-80225997D01*
X116084222Y-80235386D01*
X116060745Y-80242508D01*
X116036683Y-80247294D01*
X116012267Y-80249699D01*
X115987733Y-80249699D01*
X115963317Y-80247294D01*
X115939255Y-80242508D01*
X115915778Y-80235386D01*
X115893111Y-80225997D01*
X115871474Y-80214432D01*
X115851075Y-80200802D01*
X115832110Y-80185238D01*
X115814762Y-80167890D01*
X115799198Y-80148925D01*
X115785568Y-80128526D01*
X115774003Y-80106889D01*
X115764614Y-80084222D01*
X115757492Y-80060745D01*
X115752706Y-80036683D01*
X115750301Y-80012267D01*
X115750301Y-80000000D01*
X115750000Y-80000000D01*
X115750000Y-75012063D01*
X115546837Y-75020578D01*
X115063093Y-75088564D01*
X114588293Y-75203430D01*
X114126967Y-75364081D01*
X113683520Y-75568982D01*
X113262184Y-75816178D01*
X112866981Y-76103310D01*
X112501683Y-76427637D01*
X112169778Y-76786062D01*
X111874433Y-77175165D01*
X111618467Y-77591232D01*
X111404323Y-78030290D01*
X111234047Y-78488151D01*
X111109262Y-78960442D01*
X111031160Y-79442655D01*
X111000487Y-79930189D01*
X109506240Y-79930189D01*
X109522796Y-79456094D01*
X109606785Y-78826626D01*
X109751799Y-78208357D01*
X109956453Y-77607190D01*
X110218794Y-77028863D01*
X110536317Y-76478897D01*
X110905993Y-75962539D01*
X111324291Y-75484721D01*
X111787221Y-75050001D01*
X112290362Y-74662530D01*
X112828912Y-74326006D01*
X113397731Y-74043642D01*
X113991390Y-73818133D01*
X114604220Y-73651630D01*
X115230374Y-73545724D01*
X115863874Y-73501426D01*
X116498674Y-73519157D01*
X116498674Y-73519157D01*
G37*
D14*
G04 #@! TO.P,J1,1*
G04 #@! TO.N,/K1*
X139250000Y-72750000D03*
D13*
G04 #@! TO.P,J1,2*
G04 #@! TO.N,/A2*
X136710000Y-72750000D03*
G04 #@! TD*
D11*
G04 #@! TO.P,JP1,1*
G04 #@! TO.N,/A2*
X149830761Y-72330761D03*
D12*
G04 #@! TD*
G04 #@! TO.N,/A2*
G04 #@! TO.C,JP1*
G36*
X150643934Y-72295406D02*
X150891421Y-72542893D01*
X150608578Y-72825736D01*
X150361091Y-72578248D01*
X150078248Y-72861091D01*
X150325736Y-73108578D01*
X150042893Y-73391421D01*
X149795406Y-73143934D01*
X149689340Y-73250000D01*
X149300431Y-72861091D01*
X149300857Y-72860665D01*
X149283508Y-72843317D01*
X149252381Y-72805387D01*
X149225120Y-72764589D01*
X149201990Y-72721315D01*
X149183212Y-72675983D01*
X149168969Y-72629028D01*
X149159396Y-72580903D01*
X149154587Y-72532072D01*
X149154587Y-72483003D01*
X149159396Y-72434173D01*
X149168969Y-72386048D01*
X149183212Y-72339093D01*
X149201990Y-72293760D01*
X149225120Y-72250486D01*
X149252381Y-72209688D01*
X149283508Y-72171758D01*
X149300857Y-72154410D01*
X149300431Y-72153984D01*
X149653984Y-71800431D01*
X149654410Y-71800857D01*
X149671758Y-71783508D01*
X149709688Y-71752381D01*
X149750486Y-71725120D01*
X149793760Y-71701990D01*
X149839093Y-71683212D01*
X149886048Y-71668969D01*
X149934173Y-71659396D01*
X149983003Y-71654587D01*
X150032072Y-71654587D01*
X150080903Y-71659396D01*
X150129028Y-71668969D01*
X150175983Y-71683212D01*
X150221315Y-71701990D01*
X150264589Y-71725120D01*
X150305387Y-71752381D01*
X150343317Y-71783508D01*
X150360665Y-71800857D01*
X150361091Y-71800431D01*
X150750000Y-72189340D01*
X150643934Y-72295406D01*
X150643934Y-72295406D01*
G37*
D11*
G04 #@! TO.P,JP1,3*
G04 #@! TO.N,/K2*
X151669239Y-74169239D03*
D12*
G04 #@! TD*
G04 #@! TO.N,/K2*
G04 #@! TO.C,JP1*
G36*
X152199143Y-73639335D02*
X152216492Y-73656683D01*
X152247619Y-73694613D01*
X152274880Y-73735411D01*
X152298010Y-73778685D01*
X152316788Y-73824017D01*
X152331031Y-73870972D01*
X152340604Y-73919097D01*
X152345413Y-73967928D01*
X152345413Y-74016997D01*
X152340604Y-74065827D01*
X152331031Y-74113952D01*
X152316788Y-74160907D01*
X152298010Y-74206240D01*
X152274880Y-74249514D01*
X152247619Y-74290312D01*
X152216492Y-74328242D01*
X152199143Y-74345590D01*
X152199569Y-74346016D01*
X151846016Y-74699569D01*
X151845590Y-74699143D01*
X151828242Y-74716492D01*
X151790312Y-74747619D01*
X151749514Y-74774880D01*
X151706240Y-74798010D01*
X151660907Y-74816788D01*
X151613952Y-74831031D01*
X151565827Y-74840604D01*
X151516997Y-74845413D01*
X151467928Y-74845413D01*
X151419097Y-74840604D01*
X151370972Y-74831031D01*
X151324017Y-74816788D01*
X151278685Y-74798010D01*
X151235411Y-74774880D01*
X151194613Y-74747619D01*
X151156683Y-74716492D01*
X151139335Y-74699143D01*
X151138909Y-74699569D01*
X150750000Y-74310660D01*
X151810660Y-73250000D01*
X152199569Y-73638909D01*
X152199143Y-73639335D01*
X152199143Y-73639335D01*
G37*
D16*
G04 #@! TO.P,JP1,2*
G04 #@! TO.N,/A1*
X150750000Y-73250000D03*
D12*
G04 #@! TD*
G04 #@! TO.N,/A1*
G04 #@! TO.C,JP1*
G36*
X149866117Y-73426777D02*
X150926777Y-72366117D01*
X151633883Y-73073223D01*
X150573223Y-74133883D01*
X149866117Y-73426777D01*
X149866117Y-73426777D01*
G37*
D11*
G04 #@! TO.P,JP2,1*
G04 #@! TO.N,/K1*
X143350001Y-71750000D03*
D12*
G04 #@! TD*
G04 #@! TO.N,/K1*
G04 #@! TO.C,JP2*
G36*
X143850001Y-71150000D02*
X144250001Y-71150000D01*
X144250001Y-71550000D01*
X143850001Y-71550000D01*
X143850001Y-71950000D01*
X144250001Y-71950000D01*
X144250001Y-72350000D01*
X143850001Y-72350000D01*
X143850001Y-72500000D01*
X143350001Y-72500000D01*
X143350001Y-72499398D01*
X143325467Y-72499398D01*
X143276636Y-72494588D01*
X143228511Y-72485016D01*
X143181556Y-72470772D01*
X143136223Y-72451995D01*
X143092950Y-72428864D01*
X143052151Y-72401604D01*
X143014222Y-72370476D01*
X142979525Y-72335779D01*
X142948397Y-72297850D01*
X142921137Y-72257051D01*
X142898006Y-72213778D01*
X142879229Y-72168445D01*
X142864985Y-72121490D01*
X142855413Y-72073365D01*
X142850603Y-72024534D01*
X142850603Y-72000000D01*
X142850001Y-72000000D01*
X142850001Y-71500000D01*
X142850603Y-71500000D01*
X142850603Y-71475466D01*
X142855413Y-71426635D01*
X142864985Y-71378510D01*
X142879229Y-71331555D01*
X142898006Y-71286222D01*
X142921137Y-71242949D01*
X142948397Y-71202150D01*
X142979525Y-71164221D01*
X143014222Y-71129524D01*
X143052151Y-71098396D01*
X143092950Y-71071136D01*
X143136223Y-71048005D01*
X143181556Y-71029228D01*
X143228511Y-71014984D01*
X143276636Y-71005412D01*
X143325467Y-71000602D01*
X143350001Y-71000602D01*
X143350001Y-71000000D01*
X143850001Y-71000000D01*
X143850001Y-71150000D01*
X143850001Y-71150000D01*
G37*
D11*
G04 #@! TO.P,JP2,2*
G04 #@! TO.N,/K2*
X144649999Y-71750000D03*
D12*
G04 #@! TD*
G04 #@! TO.N,/K2*
G04 #@! TO.C,JP2*
G36*
X144649999Y-71000602D02*
X144674533Y-71000602D01*
X144723364Y-71005412D01*
X144771489Y-71014984D01*
X144818444Y-71029228D01*
X144863777Y-71048005D01*
X144907050Y-71071136D01*
X144947849Y-71098396D01*
X144985778Y-71129524D01*
X145020475Y-71164221D01*
X145051603Y-71202150D01*
X145078863Y-71242949D01*
X145101994Y-71286222D01*
X145120771Y-71331555D01*
X145135015Y-71378510D01*
X145144587Y-71426635D01*
X145149397Y-71475466D01*
X145149397Y-71500000D01*
X145149999Y-71500000D01*
X145149999Y-72000000D01*
X145149397Y-72000000D01*
X145149397Y-72024534D01*
X145144587Y-72073365D01*
X145135015Y-72121490D01*
X145120771Y-72168445D01*
X145101994Y-72213778D01*
X145078863Y-72257051D01*
X145051603Y-72297850D01*
X145020475Y-72335779D01*
X144985778Y-72370476D01*
X144947849Y-72401604D01*
X144907050Y-72428864D01*
X144863777Y-72451995D01*
X144818444Y-72470772D01*
X144771489Y-72485016D01*
X144723364Y-72494588D01*
X144674533Y-72499398D01*
X144649999Y-72499398D01*
X144649999Y-72500000D01*
X144149999Y-72500000D01*
X144149999Y-71000000D01*
X144649999Y-71000000D01*
X144649999Y-71000602D01*
X144649999Y-71000602D01*
G37*
D17*
G04 #@! TO.N,/A2*
X147750000Y-71500000D03*
G04 #@! TO.N,/A1*
X152000000Y-72000000D03*
X116000000Y-88200000D03*
X127400000Y-89000000D03*
G04 #@! TD*
D18*
G04 #@! TO.N,/K1*
X139250000Y-71650000D02*
X138600000Y-71000000D01*
X139250000Y-72750000D02*
X139250000Y-71650000D01*
X122750000Y-71000000D02*
X118750000Y-75000000D01*
X138600000Y-71000000D02*
X122750000Y-71000000D01*
X143350001Y-71750000D02*
X141750000Y-71750000D01*
X141000000Y-71000000D02*
X138600000Y-71000000D01*
X141750000Y-71750000D02*
X141000000Y-71000000D01*
D19*
X121000000Y-72750000D02*
X121750000Y-72000000D01*
X120750000Y-72750000D02*
X121000000Y-72750000D01*
D18*
G04 #@! TO.N,/A2*
X149830761Y-72330761D02*
X149406498Y-71906498D01*
X149406498Y-71906498D02*
X149000000Y-71500000D01*
X149000000Y-71500000D02*
X147750000Y-71500000D01*
G04 #@! TO.N,/K2*
X151669239Y-76830761D02*
X149750000Y-78750000D01*
X151669239Y-74169239D02*
X151669239Y-76830761D01*
X144649999Y-74149999D02*
X144750000Y-74250000D01*
X144649999Y-71750000D02*
X144649999Y-74149999D01*
G04 #@! TO.N,/A1*
X150750000Y-73250000D02*
X152000000Y-72000000D01*
X116000000Y-88200000D02*
X126600000Y-88200000D01*
X126600000Y-88200000D02*
X127400000Y-89000000D01*
G04 #@! TD*
M02*
